<?xml version="1.0"?><svg width="640" height="480" xmlns="http://www.w3.org/2000/svg">
 <title>pointer finger</title>
 <metadata id="metadata2999">image/svg+xml</metadata>
 <g>
  <title>Layer 1</title>
  <g id="g3782">
   <path fill="#d19053" d="m272.172546,462.845459l144.695709,0l0,-29.634521l0.020935,-2.229309l0.064301,-2.2276l0.106964,-2.226807l0.149536,-2.222717l0.193665,-2.21936l0.234833,-2.214417l0.278168,-2.207764l0.320038,-2.201172l0.362701,-2.192932l0.405304,-2.183777l0.446411,-2.17395l0.487549,-2.163147l0.529449,-2.150757l0.57132,-2.138306l0.612427,-2.124329l0.652802,-2.109436l0.693207,-2.092926l0.733551,-2.077209l0.772491,-2.05899l0.812836,-2.040009l0.851715,-2.020996l0.891388,-2.000305l0.927979,-1.97879l0.966156,-1.956543l1.00351,-1.933411l1.040924,-1.909332l1.078308,-1.884613l1.113434,-1.859009l1.147888,-1.83252l1.246552,-1.986267l1.209167,-2.013519l1.171021,-2.040833l1.133636,-2.067322l1.093994,-2.092865l1.055878,-2.116852l1.015503,-2.140045l0.975891,-2.163177l0.935425,-2.185455l0.894348,-2.205292l0.854004,-2.225159l0.810547,-2.244995l0.770996,-2.26236l0.726868,-2.27887l0.68573,-2.29541l0.641602,-2.310272l0.59967,-2.325165l0.554871,-2.337555l0.512939,-2.349976l0.467407,-2.360748l0.425476,-2.371399l0.379883,-2.379761l0.335815,-2.388824l0.291626,-2.395416l0.246704,-2.401215l0.201233,-2.406982l0.156982,-2.411133l0.112183,-2.413605l0.068054,-2.416107l0.0224,-2.416901l0,-137.90567l-0.021667,-1.179535l-0.064331,-1.177063l-0.107666,-1.173737l-0.149536,-1.167938l-0.1922,-1.159698l-0.23407,-1.150604l-0.277405,-1.139862l-0.317078,-1.125793l-0.357422,-1.111755l-0.399353,-1.093567l-0.438171,-1.076202l-0.476318,-1.054718l-0.515259,-1.033203l-0.551086,-1.010071l-0.589233,-0.983643l-0.623718,-0.957184l-0.657227,-0.928253l-0.691772,-0.898499l-0.723877,-0.867096l-0.753723,-0.833984l-0.785156,-0.80014l-0.812866,-0.763763l-0.840515,-0.727371l-0.865173,-0.690216l-0.890625,-0.649673l-0.912292,-0.610855l-0.934753,-0.56868l-0.954895,-0.527359l-0.973602,-0.483536l-0.990082,-0.440582l-1.005035,-0.395935l-1.018463,-0.351288l-1.031189,-0.304993l-1.040192,-0.259567l-1.049896,-0.212433l-1.057373,-0.165314l-1.061096,-0.119019l-1.065582,-0.071091l-1.067108,-0.023987l-1.066345,0.023987l-1.065582,0.071091l-1.061096,0.119019l-1.055878,0.165314l-1.050659,0.212433l-1.040894,0.259567l-1.031219,0.304993l-1.018463,0.351288l-1.004272,0.395935l-0.990814,0.440582l-0.973633,0.483536l-0.954163,0.527359l-0.93399,0.56868l-0.913818,0.610855l-0.889862,0.649673l-0.865906,0.690216l-0.839752,0.727371l-0.813599,0.763763l-0.783691,0.80014l-0.75528,0.833984l-0.723846,0.867096l-0.690948,0.898499l-0.658051,0.928253l-0.62442,0.957184l-0.587006,0.983643l-0.553345,1.010071l-0.514465,1.033203l-0.476349,1.054718l-0.438202,1.076202l-0.397827,1.093567l-0.358185,1.111755l-0.318542,1.125793l-0.275208,1.139862l-0.235565,1.150604l-0.192169,1.159698l-0.148804,1.167938l-0.107697,1.173737l-0.065033,1.177063l-0.021698,1.179535l0,-25.045349l-0.020935,-1.182831l-0.065063,-1.182037l-0.107697,-1.177856l-0.150299,-1.172089l-0.192902,-1.164658l-0.235565,-1.154724l-0.277435,-1.143158l-0.318542,-1.130753l-0.35968,-1.115082l-0.39859,-1.098495l-0.44043,-1.079514l-0.478607,-1.058853l-0.515961,-1.03653l-0.554108,-1.013397l-0.590729,-0.987778l-0.626648,-0.960464l-0.660309,-0.931564l-0.693939,-0.90181l-0.725372,-0.870361l-0.75824,-0.837326l-0.787415,-0.802628l-0.815063,-0.767059l-0.842773,-0.729874l-0.869659,-0.691849l-0.892883,-0.652985l-0.916779,-0.612518l-0.938477,-0.571152l-0.958649,-0.529022l-0.976593,-0.486008l-0.993073,-0.441391l-1.008759,-0.397598l-1.02298,-0.352127l-1.03418,-0.306656l-1.044678,-0.260376l-1.053619,-0.213257l-1.060364,-0.166122l-1.064819,-0.119049l-1.070099,-0.071915l-1.070831,-0.023132l-1.070068,0.023132l-1.069336,0.071915l-1.065613,0.119049l-1.060333,0.166122l-1.05365,0.213257l-1.044647,0.260376l-1.034943,0.306656l-1.022217,0.352127l-1.008759,0.397598l-0.993073,0.441391l-0.977356,0.486008l-0.957916,0.529022l-0.938446,0.571152l-0.916046,0.612518l-0.892853,0.652985l-0.86969,0.691849l-0.843506,0.729874l-0.815826,0.767059l-0.786652,0.802628l-0.757507,0.837326l-0.726105,0.870361l-0.69397,0.90181l-0.660278,0.931564l-0.625916,0.960464l-0.590729,0.987778l-0.554108,1.013397l-0.515991,1.03653l-0.478577,1.058853l-0.44043,1.079514l-0.400055,1.098495l-0.358215,1.115082l-0.320038,1.130753l-0.276672,1.143158l-0.235565,1.154724l-0.192169,1.164658l-0.15033,1.172089l-0.107666,1.177856l-0.065063,1.182037l-0.02243,1.182831l0,-11.209244l-0.020203,-1.18367l-0.065063,-1.181168l-0.107666,-1.177902l-0.150299,-1.172882l-0.192932,-1.163849l-0.236298,-1.154739l-0.277435,-1.143982l-0.31781,-1.129944l-0.35968,-1.115051l-0.400055,-1.098526l-0.438965,-1.079514l-0.478577,-1.058823l-0.517456,-1.037369l-0.554108,-1.013397l-0.590759,-0.986938l-0.625916,-0.960464l-0.660278,-0.932373l-0.693207,-0.90181l-0.726837,-0.870392l-0.757507,-0.836502l-0.786682,-0.802612l-0.815826,-0.767075l-0.843506,-0.730667l-0.868164,-0.691849l-0.894348,-0.653015l-0.916809,-0.611649l-0.937714,-0.571182l-0.957916,-0.528992l-0.975861,-0.486038l-0.994568,-0.44223l-1.008759,-0.397568l-1.022949,-0.352127l-1.033447,-0.305847l-1.04538,-0.260376l-1.052917,-0.213257l-1.061096,-0.166962l-1.065582,-0.119019l-1.069336,-0.071075l-1.070068,-0.023987l-1.070862,0.023987l-1.068573,0.071075l-1.065582,0.119019l-1.061096,0.166962l-1.052917,0.213257l-1.04538,0.260376l-1.033447,0.305847l-1.022949,0.352127l-1.008789,0.397568l-0.993805,0.44223l-0.976593,0.486038l-0.957916,0.528992l-0.937714,0.571182l-0.916809,0.611649l-0.893585,0.653015l-0.868927,0.691849l-0.842743,0.730667l-0.815857,0.767075l-0.787415,0.802612l-0.757507,0.836502l-0.726105,0.870392l-0.693939,0.90181l-0.660309,0.932373l-0.625885,0.960464l-0.590759,0.986938l-0.554108,1.013397l-0.516724,1.037369l-0.478546,1.058823l-0.439728,1.079514l-0.399323,1.098526l-0.35965,1.115051l-0.318573,1.129944l-0.277435,1.143982l-0.235535,1.154739l-0.192932,1.163849l-0.150299,1.172882l-0.107697,1.177902l-0.065063,1.181168l-0.020935,1.18367l0,-91.084061l-0.021667,-1.178711l-0.064331,-1.177887l-0.107697,-1.173737l-0.149536,-1.167953l-0.1922,-1.159683l-0.234802,-1.150604l-0.275909,-1.139847l-0.31781,-1.125793l-0.358185,-1.110931l-0.39859,-1.094391l-0.437439,-1.076202l-0.477081,-1.054718l-0.515228,-1.033218l-0.55188,-1.009262l-0.588501,-0.984451l-0.623657,-0.957184l-0.658051,-0.928253l-0.690948,-0.898483l-0.723846,-0.867096l-0.754517,-0.834015l-0.784424,-0.80014l-0.812836,-0.763748l-0.839783,-0.727379l-0.865936,-0.690201l-0.890625,-0.649689l-0.913025,-0.61084l-0.934723,-0.568687l-0.954926,-0.527359l-0.97287,-0.483559l-0.990082,-0.440559l-1.005005,-0.395935l-1.018494,-0.351295l-1.031189,-0.305008l-1.040924,-0.25956l-1.049866,-0.212418l-1.055878,-0.165329l-1.061859,-0.119026l-1.065613,-0.071083l-1.066345,-0.023964l-1.067047,0.023964l-1.065613,0.071083l-1.061127,0.119026l-1.05661,0.165329l-1.049896,0.212418l-1.040894,0.25956l-1.031189,0.305008l-1.018494,0.351295l-1.005035,0.395935l-0.990082,0.440559l-0.97287,0.483559l-0.954926,0.527359l-0.934723,0.568687l-0.913025,0.61084l-0.890625,0.649689l-0.865936,0.690201l-0.839752,0.727379l-0.812866,0.763748l-0.784424,0.80014l-0.754517,0.834015l-0.723083,0.867096l-0.691711,0.898483l-0.658051,0.928253l-0.623657,0.957184l-0.588501,0.984451l-0.55188,1.009262l-0.515198,1.033218l-0.476349,1.054718l-0.438202,1.076202l-0.39856,1.094391l-0.358215,1.110931l-0.31781,1.125793l-0.275909,1.139847l-0.23407,1.150604l-0.192932,1.159683l-0.149567,1.167953l-0.107666,1.173737l-0.064301,1.177887l-0.021698,1.178711l0,174.694214l-0.622162,-1.49115l-0.661774,-1.469666l-0.701447,-1.448181l-0.739532,-1.42334l-0.77771,-1.399414l-0.815094,-1.372955l-0.851715,-1.345642l-0.886871,-1.317596l-0.922028,-1.286957l-0.956421,-1.257263l-0.989319,-1.224976l-1.022217,-1.191925l-1.052887,-1.157227l-1.08429,-1.123291l-1.113434,-1.086121l-1.142639,-1.049774l-1.170288,-1.012573l-1.196442,-0.9729l-1.222626,-0.933197l-1.246552,-0.8927l-1.269745,-0.852203l-1.292908,-0.809235l-1.313141,-0.767029l-1.334045,-0.723267l-1.35199,-0.679474l-1.370697,-0.634796l-1.386383,-0.590179l-1.401367,-0.543884l-1.415527,-0.497589l-1.429047,-0.4505l-1.439484,-0.404175l-1.449951,-0.357086l-1.459686,-0.309174l-1.4664,-0.260376l-1.473145,-0.213257l-1.4776,-0.16449l-1.482117,-0.115692l-1.484375,-0.066956l-1.48584,-0.019012l-1.485107,0.029755l-1.483612,0.079346l-1.481354,0.127319l-1.476868,0.176025l-1.053619,0.166168l-1.046173,0.213257l-1.037903,0.259552l-1.027466,0.304169l-1.015488,0.350464l-1.002045,0.394257l-0.987808,0.438934l-0.969894,0.481903l-0.952682,0.524872l-0.93248,0.566223l-0.911545,0.606689l-0.888367,0.646393l-0.864441,0.686066l-0.83902,0.723267l-0.812088,0.759613l-0.784439,0.795166l-0.754501,0.829041l-0.723862,0.861328l-0.692459,0.893524l-0.658798,0.922455l-0.6259,0.951385l-0.589996,0.978668l-0.554855,1.003479l-0.518219,1.027435l-0.480072,1.049774l-0.44194,1.06958l-0.403061,1.088593l-0.362656,1.105164l-0.323044,1.120819l-0.281921,1.134064l-0.240784,1.14563l-0.198914,1.154755l-0.157791,1.163818l-0.11441,1.168762l-0.072525,1.172943l-0.029922,1.176208l0.011978,1.175385l0.055328,1.174561l0.097198,1.171295l0.140594,1.16629l0.181717,1.15802l0.223587,1.149811l0.265472,1.139008l0.305832,1.126648l0.34697,1.111755l0.386612,1.096008l0.425476,1.077057l0.465134,1.058014l0.502518,1.03653l0.539139,1.014191l0.575806,0.988617l0.611679,0.962952l0.64534,0.934875l0.679001,0.90509l0.711136,0.874542l0.741806,0.843109l0.772461,0.809204l0.800873,0.774506l0.827805,0.738129l0.854721,0.700958l0.878632,0.662903l0.90184,0.62326l0.924271,0.583557l0.944443,0.541412l0.96315,0.499237l0.980331,0.457092l0.996811,0.412476l1.126907,0.465363l1.110443,0.510834l1.092529,0.557098l1.07309,0.601746l1.052124,0.644745l1.029694,0.688538l1.005035,0.730713l0.980347,0.77121l0.9534,0.810852l0.925018,0.849701l0.896606,0.887756l0.865173,0.924133l0.833801,0.958832l0.80011,0.992706l0.766479,1.024963l0.731354,1.056366l0.695435,1.085297l0.658051,1.113403l0.619904,1.139038l0.581024,1.164642l0.541412,1.187805l0.501007,1.209259l0.4599,1.229156l0.417999,1.247314l0.375397,1.263l0.332031,1.277893l0.289368,1.291107l0.2453,1.30188l0.201141,1.311768l0.157043,1.31842l0.112152,1.324158l0.067291,1.327484l0.02243,1.329956l0,11.629974l0.021698,2.597137l0.065796,2.596252l0.109955,2.594666l0.15329,2.592133l0.196655,2.588013l0.240784,2.583893l0.28418,2.578094l0.328247,2.572327l0.370911,2.56488l0.414276,2.55661l0.457642,2.547516l0.500275,2.537567l0.542908,2.526855l0.586243,2.516113l0.627411,2.502899l0.670746,2.489655l0.711884,2.474762l0.753784,2.460724l0.794891,2.444214l0.836029,2.426819l0.877136,2.409515l0.917542,2.391235l0.957916,2.372284l0.997559,2.351654l1.03717,2.330933l1.076813,2.308624l1.11496,2.286316l1.153076,2.263214l1.191956,2.238373l1.228607,2.213562l1.266754,2.187988l1.302643,2.161499l1.339294,2.13504l1.375183,2.10611l1.410309,2.077209l1.444733,2.048279l1.479858,2.01767l1.513519,1.987091l1.546417,1.955688l1.579315,1.923431l1.611481,1.890381l1.642883,1.85733l1.674286,1.822632l1.704193,1.787048l1.734894,1.75235l1.764008,1.716827l1.79245,1.679565l1.820099,1.642426l1.847778,1.60437l1.10675,0.973755l1.079041,1.011719l1.04837,1.04892l1.019257,1.085297l0.987061,1.120056l0.954926,1.153015l0.921265,1.187012l0.886902,1.217529l0.852448,1.248962l0.815857,1.2771l0.778442,1.305115l0.741821,1.331665l0.702881,1.356384l0.664032,1.381226l0.62439,1.40271l0.584045,1.424194l0.54364,1.444031l0.50177,1.462219l0.459869,1.47876l0.417267,1.493652l0.374664,1.508484l0.331268,1.520081l0.287903,1.530823l0.243744,1.539917l0.200409,1.548218l0.155548,1.553955l0.11142,1.558899l0.066559,1.562256l0.02243,1.563049l0,29.634521l0,0z" id="path2991"/>
   <path fill="#d19053" stroke="#000000" stroke-width="9" stroke-linecap="round" stroke-linejoin="round" stroke-miterlimit="4" d="m434.338043,372.580505l1.246552,-1.986267l1.209167,-2.013519l1.171021,-2.040833l1.133636,-2.067322l1.094025,-2.092865l1.055847,-2.116852l1.015503,-2.140015l0.975891,-2.163147l0.935486,-2.185516l0.894348,-2.205292l0.853943,-2.225159l0.810608,-2.244995l0.770935,-2.26236l0.726868,-2.27887l0.68573,-2.29541l0.641602,-2.310272l0.599731,-2.325165l0.55481,-2.337555l0.513,-2.349976l0.467346,-2.360748l0.425476,-2.371399l0.379944,-2.379761l0.335754,-2.388824l0.291626,-2.395386l0.246765,-2.401245l0.201172,-2.406982l0.157043,-2.411133l0.112122,-2.413574l0.068054,-2.416138l0.022461,-2.416901m-212.35611,-265.244354l0,210.490906m52.993317,-210.490906l0,182.561615m159.362793,-55.222931l0,137.90567m-52.993317,-162.951019l0,80.26828m-53.185486,-91.477524l0,91.477524m-142.137543,61.757874l0,-11.629974m66.554382,161.188751l0,29.634521m144.695709,-29.634521l0,29.634521m-122.296539,-423.512772l-0.021698,-1.178696l-0.064301,-1.177887l-0.107697,-1.173737l-0.149536,-1.167969l-0.1922,-1.159683l-0.234802,-1.150604l-0.275909,-1.139847l-0.31781,-1.125793l-0.358185,-1.110916l-0.39859,-1.094406l-0.437439,-1.076202l-0.477112,-1.054718l-0.515198,-1.033218l-0.55188,-1.009247l-0.588501,-0.984467l-0.623657,-0.957169l-0.658051,-0.928253l-0.690948,-0.898499l-0.723877,-0.867081l-0.754517,-0.834015l-0.784393,-0.80014l-0.812866,-0.763748l-0.839752,-0.727394l-0.865936,-0.690201l-0.890625,-0.649689l-0.913025,-0.61084l-0.934723,-0.568687l-0.954926,-0.527359l-0.97287,-0.483543l-0.990082,-0.440567l-1.005005,-0.395935l-1.018494,-0.351303l-1.031189,-0.304993l-1.040924,-0.25956l-1.049896,-0.212418l-1.055878,-0.165329l-1.061829,-0.119026l-1.065613,-0.071083l-1.066345,-0.023964l-1.067078,0.023964l-1.065582,0.071083l-1.061127,0.119026l-1.056641,0.165329l-1.049866,0.212418l-1.040924,0.25956l-1.031189,0.304993l-1.018463,0.351303l-1.005066,0.395935l-0.990051,0.440567l-0.97287,0.483543l-0.954895,0.527359l-0.934753,0.568687l-0.913055,0.61084l-0.890594,0.649689l-0.865967,0.690201l-0.839752,0.727394l-0.812836,0.763748l-0.784424,0.80014l-0.754517,0.834015l-0.723114,0.867081l-0.691681,0.898499l-0.658051,0.928253l-0.623657,0.957169l-0.588531,0.984467l-0.551849,1.009247l-0.515228,1.033218l-0.476349,1.054718l-0.438202,1.076202l-0.39856,1.094406l-0.358185,1.110916l-0.31781,1.125793l-0.27594,1.139847l-0.234039,1.150604l-0.192932,1.159683l-0.149567,1.167969l-0.107697,1.173737l-0.064301,1.177887l-0.021698,1.178696m13.110199,354.58931l-1.847778,-1.604431l-1.820099,-1.642426l-1.79245,-1.679565l-1.764038,-1.716797l-1.734863,-1.75238l-1.704193,-1.787048l-1.674286,-1.822571l-1.642883,-1.857361l-1.611481,-1.890411l-1.579346,-1.923431l-1.546417,-1.955688l-1.513519,-1.987091l-1.479858,-2.01767l-1.444702,-2.048279l-1.410339,-2.077209l-1.375183,-2.10611l-1.339294,-2.13504l-1.302612,-2.161499l-1.266754,-2.187988l-1.228607,-2.213562l-1.191986,-2.238373l-1.153076,-2.263153l-1.11496,-2.286316l-1.076813,-2.308685l-1.03717,-2.330933l-0.997528,-2.351593l-0.957916,-2.372284l-0.917542,-2.391296l-0.877136,-2.409485l-0.83606,-2.426849l-0.794861,-2.444183l-0.753784,-2.460693l-0.711884,-2.474823l-0.670776,-2.489655l-0.62738,-2.502838l-0.586273,-2.516113l-0.542877,-2.526886l-0.500275,-2.537598l-0.457672,-2.547516l-0.414246,-2.55658l-0.370911,-2.56488l-0.328278,-2.572327l-0.284149,-2.578125l-0.240814,-2.583862l-0.196655,-2.588013l-0.15329,-2.592163l-0.109924,-2.594635l-0.065796,-2.596283l-0.021698,-2.597107m-15.925568,-102.128021l-1.053619,0.166168l-1.046173,0.213257l-1.037933,0.259521l-1.027466,0.304169l-1.015472,0.350494l-1.002029,0.394257l-0.987823,0.438934l-0.969879,0.481903l-0.952682,0.524872l-0.932495,0.566193l-0.91156,0.60672l-0.888351,0.646393l-0.864456,0.686035l-0.83902,0.723267l-0.812073,0.759613l-0.784439,0.795197l-0.754517,0.829041l-0.723846,0.861328l-0.692474,0.893524l-0.658783,0.922455l-0.6259,0.951385l-0.589996,0.978668l-0.554855,1.003479l-0.518204,1.027435l-0.480103,1.049774l-0.441925,1.06955l-0.403076,1.088623l-0.362656,1.105133l-0.323044,1.12085l-0.281921,1.134064l-0.240784,1.14563l-0.198914,1.154724l-0.157791,1.163818l-0.11441,1.168793l-0.072525,1.172913l-0.029922,1.176239l0.011978,1.175385l0.055328,1.174561l0.097198,1.171295l0.140594,1.16629l0.181717,1.15802l0.223587,1.149811l0.265472,1.139008l0.305832,1.126648l0.34697,1.111725l0.386612,1.096039l0.425491,1.077057l0.465118,1.058014l0.502518,1.03653l0.539154,1.014191l0.57579,0.988617l0.611694,0.962952l0.64534,0.934845l0.678986,0.905121l0.711136,0.874542l0.741806,0.843079l0.772461,0.809235l0.800873,0.774506l0.827805,0.738129l0.854721,0.700928l0.878647,0.662933l0.901825,0.62323l0.924271,0.583588l0.944443,0.541412l0.963165,0.499237l0.980347,0.457092l0.99678,0.412476m163.65657,-108.008301l-0.020203,-1.183655l-0.065033,-1.181183l-0.107697,-1.177887l-0.15033,-1.172913l-0.192902,-1.163818l-0.236298,-1.154739l-0.277435,-1.143982l-0.31781,-1.129944l-0.35968,-1.115051l-0.400055,-1.098526l-0.438965,-1.079514l-0.478577,-1.058838l-0.517487,-1.037354l-0.554108,-1.013397l-0.590729,-0.986938l-0.625885,-0.96048l-0.660309,-0.932388l-0.693176,-0.901779l-0.726868,-0.870392l-0.757507,-0.836502l-0.786682,-0.802612l-0.815826,-0.767075l-0.843506,-0.730698l-0.868195,-0.691849l-0.894318,-0.652985l-0.916809,-0.611679l-0.937714,-0.571152l-0.957916,-0.529022l-0.975861,-0.486038l-0.994537,-0.44223l-1.008759,-0.397568l-1.02298,-0.352127l-1.033447,-0.305832l-1.04541,-0.260361l-1.052856,-0.213257l-1.061127,-0.166992l-1.065582,-0.119019l-1.069336,-0.071075l-1.070099,-0.023972l-1.070831,0.023972l-1.068573,0.071075l-1.065582,0.119019l-1.061096,0.166992l-1.052917,0.213257l-1.04541,0.260361l-1.033417,0.305832l-1.02298,0.352127l-1.008759,0.397568l-0.993805,0.44223l-0.976593,0.486038l-0.957916,0.529022l-0.937744,0.571152l-0.916779,0.611679l-0.893585,0.652985l-0.868958,0.691849l-0.842743,0.730698l-0.815826,0.767075l-0.787415,0.802612l-0.757507,0.836502l-0.726105,0.870392l-0.693939,0.901779l-0.660278,0.932388l-0.625916,0.96048l-0.590759,0.986938l-0.554108,1.013397l-0.516724,1.037354l-0.478577,1.058838l-0.439667,1.079514l-0.399323,1.098526l-0.359711,1.115051l-0.318542,1.129944l-0.277435,1.143982l-0.235535,1.154739l-0.192932,1.163818l-0.150299,1.172913l-0.107697,1.177887l-0.065063,1.181183l-0.020935,1.183655m53.18399,11.209244l0.02243,-1.182831l0.065063,-1.182022l0.107697,-1.177872l0.150299,-1.172089l0.192169,-1.164642l0.235535,-1.154739l0.276672,-1.143158l0.320068,-1.130768l0.358185,-1.115051l0.400085,-1.098526l0.44043,-1.079514l0.478607,-1.058838l0.515961,-1.03653l0.554108,-1.013397l0.590729,-0.987762l0.625916,-0.96048l0.660278,-0.931564l0.69397,-0.901794l0.726105,-0.870392l0.757507,-0.837326l0.786652,-0.802597l0.815857,-0.767075l0.843475,-0.729858l0.86969,-0.691849l0.892853,-0.653015l0.916016,-0.612488l0.938477,-0.571182l0.957916,-0.528992l0.977356,-0.486038l0.993042,-0.441391l1.008789,-0.397568l1.022217,-0.352158l1.034943,-0.306625l1.044647,-0.260376l1.053619,-0.213287l1.060364,-0.166122l1.065582,-0.119019l1.069366,-0.071915l1.070068,-0.023163l1.070831,0.023163l1.070099,0.071915l1.064819,0.119019l1.060364,0.166122l1.053619,0.213287l1.044647,0.260376l1.03421,0.306625l1.02298,0.352158l1.008759,0.397568l0.993042,0.441391l0.976624,0.486038l0.958649,0.528992l0.938477,0.571182l0.916779,0.612488l0.892853,0.653015l0.86969,0.691849l0.842743,0.729858l0.815094,0.767075l0.787415,0.802597l0.75824,0.837326l0.725372,0.870392l0.693939,0.901794l0.660278,0.931564l0.626678,0.96048l0.590729,0.987762l0.554108,1.013397l0.515961,1.03653l0.478607,1.058838l0.44043,1.079514l0.39859,1.098526l0.35968,1.115051l0.318542,1.130768l0.277435,1.143158l0.235535,1.154739l0.192932,1.164642l0.150299,1.172089l0.107697,1.177872l0.065063,1.182022l0.020935,1.182831m-195.323029,130.396164l-0.02243,-1.329926l-0.067291,-1.327515l-0.112152,-1.324158l-0.157043,-1.31842l-0.201172,-1.311768l-0.24527,-1.301849l-0.289398,-1.291138l-0.332001,-1.277863l-0.375397,-1.263031l-0.417999,-1.247314l-0.4599,-1.229126l-0.501007,-1.209259l-0.541412,-1.187805l-0.581024,-1.164642l-0.619904,-1.139038l-0.658051,-1.113403l-0.695435,-1.085297l-0.731354,-1.056366l-0.766479,-1.024963l-0.80011,-0.992737l-0.833801,-0.958801l-0.865173,-0.924133l-0.896606,-0.887756l-0.925018,-0.849701l-0.95343,-0.810883l-0.980347,-0.77121l-1.005005,-0.730682l-1.029694,-0.688538l-1.052155,-0.644745l-1.073059,-0.601746l-1.092529,-0.557129l-1.110443,-0.510803l-1.126923,-0.465393m5.593445,-56.900879l1.476868,-0.176056l1.481354,-0.127289l1.483612,-0.079346l1.485107,-0.029755l1.48584,0.019012l1.484344,0.066956l1.482117,0.115692l1.477631,0.16449l1.473145,0.213257l1.4664,0.260376l1.459686,0.309143l1.449951,0.357086l1.439484,0.404205l1.429016,0.45047l1.415558,0.49762l1.401367,0.543884l1.386383,0.590179l1.370697,0.634796l1.35199,0.679474l1.334045,0.723267l1.31311,0.767029l1.292908,0.809235l1.269745,0.852203l1.246582,0.8927l1.222626,0.933197l1.196442,0.9729l1.170288,1.012543l1.142609,1.049774l1.113464,1.086121l1.08429,1.123322l1.052887,1.157227l1.022217,1.191925l0.989319,1.224976l0.956421,1.257233l0.922028,1.286987l0.886871,1.317566l0.851715,1.345673l0.815094,1.372925l0.777679,1.399414l0.739563,1.42337l0.701416,1.448181l0.661804,1.469635l0.622162,1.49115m30.594116,219.184021l-0.02243,-1.563049l-0.066528,-1.562256l-0.11142,-1.558899l-0.155579,-1.553955l-0.200378,-1.548218l-0.243774,-1.539856l-0.287903,-1.530884l-0.331268,-1.520081l-0.374634,-1.508484l-0.417236,-1.493652l-0.45993,-1.478699l-0.50174,-1.46228l-0.54364,-1.444031l-0.584015,-1.424133l-0.62442,-1.402771l-0.664032,-1.381226l-0.702911,-1.356384l-0.741821,-1.331604l-0.778442,-1.305176l-0.815826,-1.2771l-0.852478,-1.248901l-0.886871,-1.21759l-0.921295,-1.186951l-0.954895,-1.153076l-0.987091,-1.120026l-1.019226,-1.085266l-1.048401,-1.048981l-1.07901,-1.011719l-1.10675,-0.973694m162.179657,39.28894l0.020966,-2.229248l0.064301,-2.227661l0.106934,-2.226807l0.149567,-2.222656l0.193665,-2.21936l0.234802,-2.214417l0.278168,-2.207825l0.320068,-2.201111l0.362671,-2.192932l0.405304,-2.183838l0.446442,-2.17395l0.487549,-2.163147l0.529419,-2.150757l0.57132,-2.138306l0.612427,-2.124329l0.652832,-2.109436l0.693207,-2.092896l0.733551,-2.077179l0.772461,-2.059052l0.812836,-2.040009l0.851746,-2.020935l0.891357,-2.000366l0.927979,-1.97879l0.966156,-1.956543l1.00351,-1.93335l1.040924,-1.909393l1.078308,-1.884613l1.113464,-1.858948l1.147858,-1.832581m-192.759613,-122.756897l-0.021667,1.998688l-0.065063,1.997833l-0.108429,1.995361l-0.151794,1.992889l-0.194427,1.987091l-0.238556,1.982147l-0.281158,1.97467l-0.323792,1.966461l-0.366425,1.95816l-0.409027,1.947418l-0.450928,1.935852l-0.492767,1.923431l-0.534668,1.910248l-0.575806,1.894501l-0.616913,1.879669l-0.658051,1.862274m0,0l-0.667786,1.889557l-0.62738,1.905273l-0.587769,1.921783l-0.546631,1.935852l-0.506256,1.94989l-0.464386,1.962311l-0.423218,1.973877l-0.381378,1.983765l-0.34024,1.992889l-0.297607,2.001984l-0.255005,2.008575l-0.213135,2.014404l-0.170471,2.019318m170.333496,-139.918396l0.021698,-1.179535l0.065063,-1.177032l0.107666,-1.173767l0.148834,-1.167938l0.192169,-1.159698l0.235565,-1.150604l0.275146,-1.139862l0.318573,-1.125793l0.358185,-1.111755l0.397827,-1.093567l0.438202,-1.076202l0.476349,-1.054718l0.514465,-1.033234l0.553375,-1.010071l0.587006,-0.983612l0.62439,-0.957184l0.658051,-0.928253l0.690979,-0.898499l0.723846,-0.867065l0.755249,-0.834015l0.783691,-0.80014l0.813568,-0.763748l0.839783,-0.727402l0.865936,-0.690186l0.889862,-0.649689l0.913788,-0.610855l0.93399,-0.56868l0.954193,-0.527359l0.973602,-0.483536l0.990814,-0.440598l1.004272,-0.395905l1.018494,-0.351303l1.031189,-0.305008l1.040924,-0.259537l1.050629,-0.212448l1.055878,-0.165298l1.061096,-0.119034l1.065582,-0.071091l1.066376,-0.023956l1.067047,0.023956l1.065613,0.071091l1.061127,0.119034l1.057373,0.165298l1.049866,0.212448l1.040161,0.259537l1.031189,0.305008l1.018494,0.351303l1.005035,0.395905l0.990051,0.440598l0.973633,0.483536l0.954926,0.527359l0.934723,0.56868l0.912323,0.610855l0.890625,0.649689l0.865173,0.690186l0.840454,0.727402l0.812866,0.763748l0.785156,0.80014l0.753845,0.834015l0.723816,0.867065l0.691711,0.898499l0.657288,0.928253l0.623718,0.957184l0.589233,0.983612l0.551086,1.010071l0.515259,1.033234l0.476318,1.054718l0.438171,1.076202l0.399353,1.093567l0.357361,1.111755l0.317139,1.125793l0.277405,1.139862l0.23407,1.150604l0.192139,1.159698l0.149597,1.167938l0.107666,1.173767l0.064331,1.177032l0.021667,1.179535" id="path2993"/>
  </g>
 </g>
</svg>