<?xml version="1.0" standalone="yes"?>
<svg xmlns="http://www.w3.org/2000/svg" width="856" height="484">
<path style="stroke:#000000; fill:none;" d="M399 45C408.232 36.7196 424.507 36.675 421.671 53C420.023 62.4905 394.078 89.8922 419 87.267C421.723 86.9802 424.338 86.6357 427 86M551 60C550.778 54.8391 548.115 46.9544 551.028 42.2292C553.552 38.1354 558.667 39.7006 559.667 44.0193C560.685 48.4179 557.808 53.1789 556 57L563 59M617 41C615.95 46.6548 612.768 56.106 619 59M475 88L483 66C497.588 77.643 505.61 53.9935 513 45C517.43 59.9853 514 80.3606 514 96M406 46C403.975 54.5043 404.652 63.3633 403.83 72C403.421 76.3036 401.899 80.3409 406 83M304 47C304 57.946 301.123 73.4062 307 83L319 68L322 90M299 48L276.603 52.0278L275.715 62L278 90M456 49C455.255 61.7766 455.56 77.6587 462 89M255 53L275 53M482 51L483 65M570.148 52.2168C574.682 50.1908 577.703 56.7241 572.906 58.6728C568.604 60.4203 565.859 54.1335 570.148 52.2168M638 52C638.428 61.6922 652.774 55.1723 658 53L658 61M615 58C607.441 63.2546 607.5 54.186 615 53M627 59C624.481 51.5527 634.004 54.6728 627 59M455 55L442 76L456 78M577 58L598 58M549 68L564 67M336 78C342.067 65.035 350 76.5565 336 78M565 74L560 83L572 84M565 77L565 83M434 87L442 78M621 91C626.502 87.3593 619.159 85.9745 616 85L623 78M335 79C333.882 94.608 349.741 86.2032 358 83M459 79L461 79M630 92L639 90L631 85L637 80M585 88C575.987 91.1809 574.318 82.7952 583 81M608 81C604.853 83.8727 603.297 88.0929 609 88M598 89C590.768 90.1121 588.657 84.1822 596 82M560 83L556 89M566 86L568 91M558 98L576 95M695 96C696.198 99.7289 697.68 99.7386 701 98L702 97M697 101C699.09 104.189 701.464 103.618 705 103M581 103L589 116M696 104L695 112M272 107C281.014 105.401 289.92 108.694 299 107.83C334.709 104.434 372.089 102.63 408 105.09C444.144 107.565 479.673 112 516 112M689 105L695 106M625 106C625 110.968 630.91 124.563 634 114M582 107L569 112L569 113L569 114L569 115M672 114L676 111C676.063 114.684 674.461 115.243 671 116C673.467 120.43 676.676 119.356 681 118M603 115C601.049 115.925 595.322 114.919 598.662 113.237C601.423 111.846 606.613 116.783 609 118M625 115C620.837 117.831 617.752 119.069 613 117L618 114M674 113L676 115M646 115L649 119M654 115L662 121M635 118L641 118M571 125L586 124M62 152C60.4247 160.45 57.6323 172.423 47 166L41 178M46 161L47 165M268 165L290 163.91L358 164C357.617 168.849 354.244 178.403 357.032 182.682C358.902 185.553 363.14 184.816 366 185.815C372.048 187.927 378.082 191.048 384 193.579C401.077 200.882 412.161 209.891 425 223C427.051 218.796 426.117 216.045 424 212M360 162L358 164M62 163C62.0182 169.61 62.7474 175.485 68 180M80 166L81 167L75 171L80 166M135 169C132.886 172.186 131.863 174.035 128 173L128 171M118.264 171.175C121.364 169.543 122.346 174.451 119.736 175.825C116.636 177.457 115.654 172.549 118.264 171.175M158 170C153.148 174.225 144.904 182.002 142 172M270 170L271 201M87 171L90 178L105 171L111 179M74 172C75.3652 176.746 78.1952 178.464 83 179M157 173L152 199M281 176L282 189M325 176L322 185M304 192C300.227 184.771 308.852 180.465 308.855 186.041C308.857 190.258 303.701 192.585 303 197M296 184C293.858 188.067 290.534 189.466 288 185M319 185L315 191L310 186M325 185L330 187M356 185C356.184 189.282 360.879 201.301 358.292 204.4C353.673 209.937 339.13 206.002 333 206C309.589 205.991 287.169 208.008 264 211M295 187L301 191M327 187L324 193M740 234C735.919 229.331 720.978 233.772 715 233.861C696.178 234.142 677.687 231.967 659 232.886C651.825 233.239 644.779 232.139 638 235C636.429 229.685 635.833 215.461 641.279 212.028C648.817 207.275 669.094 211 678 211C708.771 211 741.588 204.157 772 208M769 208L757 283M780 208L781 208M787 208L787 209M791 210L793 210M656 212L654 232M115 239C116.947 231.473 115.545 218.31 123 214M207 215L206 238M678 215L675 231M697 215L695 233M790 217L792 217M41 218L43 239M720 218L716 233M742 218L741 231M411 235C418.183 234.04 422.301 228.82 426 223C435.493 228.065 454.312 223.821 465 223.09C497.504 220.864 530.688 223.084 563 219M163 220C163.018 226.637 162.996 231.732 170 234M572 220L561.3 259L557 291M94 221L95 232L105 232M134 222C146.236 220.218 139.522 242.394 131.228 237.928C125.722 234.964 127.302 217.66 134 224M149 230C148.261 238.712 155.605 236.032 158 230M207 230L216 230M741 231L763 230M61 232C59.5782 236.781 55.9884 238.268 54 233L54 233M72 251C71.9082 246.553 68.3341 231.82 76.8704 232.546C82.4015 233.017 78.4993 239.54 76 241M174 240C174.926 234.19 184.143 229.064 182.623 236.91C181.493 242.749 174.252 240.32 174 248M84 234L85 239L94 233M191 233L189 237L191 239L197 233M95 234L96 238M772 234L773 234M429 235L432 272M60 236L65 240M637 236C636.149 246.786 634.689 258.557 631.791 269C630.726 272.838 626.996 278.496 630.028 282.4C634.605 288.294 653.235 286.523 660 287.17C678.279 288.916 695.746 287 714 287C728.37 287 742.604 289 757 289M461 260C461 254.924 458.803 244.615 461.117 240.228C462.905 236.841 469.79 235.661 471.928 239.318C476.557 247.236 456.951 256.845 473 262M496 241L487 259C493.365 259 501.369 256.796 502 265M495 244L500 258M512 265L515 252C521.156 253.137 523.456 248.254 527 244L531 269M515 245L515 252M658 251L660 263M649 252C647.892 258.584 652.127 257.241 656 254M613 254C630.943 252.584 621.696 261.055 612 268M740 255L729 273M578 272C565.803 264.873 568.177 263.039 579 256M669 256L672 262M715 256C716.29 259.92 717.968 259.17 721 257L722 256M729 256C730.057 259.492 731.418 260.432 735 261M648 257L646 261M678 257C680.537 264.821 688.769 256.776 694 260M706 263C699.23 259.242 707.778 255.199 706 263M577 258L579 260L575 260M487 259L480 266M579 260L614 259M37 299L36 309C30.1392 302.941 29.3495 278.72 42.0039 280.993C55.7898 283.469 45.8845 297.613 37 299M265 292C289.464 286.16 316.028 286.681 341 284.975C345.994 284.634 361.466 280.163 364.972 284.603C369.948 290.906 362.158 310.357 362 318C381.365 317.156 399.32 301.024 415 291.053C420.417 287.608 425.535 282.81 432 281.529C440.928 279.759 450.966 282.889 460 282.996C491.186 283.367 521.837 288.086 553 288M417 283L422 283M432 283L427 295M629 283L627 285M36 289L36 298M179 289L179 290M117 300C106.679 307.307 106.922 292.255 112.985 293.752C117.464 294.857 117.832 300.73 123 302M125 294L129 300L133 297C138.81 300.413 142.533 292.921 146 300L147 301M151 294C155.619 302.228 162.658 295.764 169 299L169 300L170 302L170 302M187 294C186.726 301.285 192.608 298.66 195 294M208 300L203 302C202.487 299.224 204.246 292.106 208.105 296.377C219.783 309.302 214.284 341.68 192 330M179 296L179 301M79 321C87.7321 325.106 86.2812 303.74 84 299C88.3083 298.372 89.6127 300.643 92 304L101 297M266 297L266 328M650 297C651.121 303.035 652.449 312.069 660 305M53 298L54 306L58 299M65.1721 299.371C68.7835 297.952 70.4998 303.204 66.8117 304.249C63.5582 305.171 61.9944 300.62 65.1721 299.371M193 298L195 302M632 298L633 299M739 298L739 311L751 307M82 299L84 299M713 299C711.784 306.214 715.061 315.195 721 305M277 316C274.02 310.32 276.151 305.808 281 302C284.986 310.666 276.101 315.436 276 324M711 308L705 308L711 305M677 306C678.346 314.068 686.44 309.165 692 309M698 308L705 308M659 307C663.454 310.295 666.807 311.093 672 309M730 307L731 312L726 311L730 307M633 308L633 312M652 308L652 311M638 311L646 312M720 310L720 311M747 310C748.179 315.703 751.532 316.868 757 317M732 313L734 314M306 318L301 317C308.691 310.379 308.123 331.962 304 336L303 332M327 315L329 317L325 320L327 315M289 316L284 321M319 316C316.448 318.111 315.016 319.653 312 318M335 316L349 320M295 318L301 317M328 319L330 321M361 319C361 324.589 362.392 339.175 357.411 342.972C353.18 346.198 340.041 344.261 335 343.575C317.58 341.204 300.267 344.745 283 341.92C275.692 340.724 269.011 342.854 266 335M662 322L662 334M700 324L700 328L707 328M637.942 327.836C644.128 326.756 640.908 335.501 636.015 336.048C628.473 336.89 632.942 328.71 637.942 327.836M672 336C672.948 331.668 680.896 325.429 679.248 332.015C678.126 336.501 672.827 336.994 672 342M686 328C686.231 333.229 690.388 334.244 692 329M655 330C652.386 334.455 649.055 333.629 646 330L649 329M699 329L698 339M634 330L636 332M662 330L672 335M248 359C251.166 356.559 252.535 358.482 252 362M501 373C493.408 369.945 487 364.393 495 357M543 357L542 373M469 358L467 368L484 370L477 369M222 361C237.498 358.123 250.315 368.29 239.892 383.985C232.741 394.754 207.946 394.82 215.729 413C216.635 415.115 217.86 417.164 219.38 418.896C221.401 421.201 224.193 423.307 227 424.566C246.188 433.177 260.005 395.578 235 393M403 360C403.03 370.422 407.571 368.533 412 375M565 360C564.983 364.783 565.098 368.453 560 370M632 361L631 375C637.013 371.408 638.97 375.072 645 376M225 393C214.277 386.079 207.033 372.259 219 362M108 365L124 363M308 364C304.611 368.821 301.613 375.478 308 379M327 366L329 365M415 366L415 367M576 366L577 366M125 367L126 368M511 367C502.73 372.706 510.069 376.173 517 374M61 368C60.0092 369.875 57.8047 373.33 60.4228 375.007C63.1058 376.726 69.6298 373.829 73 374.221C88.0593 375.971 102.31 388.411 93.6821 404.91C88.8013 414.244 70.5878 418.935 62.2245 411.567C53.3054 403.709 54.9057 386.635 61 378M256 380L263 375L257 373L263 369M656 371C661.944 365.174 663.696 376.374 655 372C648.048 384.542 658.994 384.999 669 385M267 369L269 369M446 369L444 375C442.724 371.784 442.954 370.721 446 369M466 369L466 370M564 369L565 376M88 370L93 375M115 370L116 382M430 370L422 376L422 371L426 373M485 370L487 372M639 372L642 370M227 371L227 379M316 371C311.377 375.463 312.711 379.7 319 381M349.429 372.341C351.524 371.436 352.753 374.788 350.698 375.659C348.569 376.561 347.409 373.214 349.429 372.341M359 378C359.095 375.105 363.366 368.622 363.366 374.138C363.366 378.895 359.004 383.28 359 389M372 371C367.498 380.681 381.729 375.07 386 373M566 371L576 373M612 377C605.684 376.925 601.943 372.681 610 371M132 374L147 374L147 377M156 376L159 372C159.07 375.278 158.057 375.888 155 377C156.983 383.673 162.396 382.446 168 381M396 374L391 377C389.921 369.967 396.444 374.46 400 376M582 372L598 375M621 372L629 375M276 373L288 376M431 374L436 373M269 374L269 377M299 374L298 380C295.498 377.313 295.822 375.807 299 374M126 375L127 378M624 375L620 377M77 376L78 391L85 382M294 380L294 384M536 383L651 384M474 399C469.14 395.849 471.103 383.759 477.853 387.086C482.649 389.451 479.483 395.927 483 399L484 399L485 399L486 400M390 391L391 407M589 392L589 403L596 405M128.04 393.967C134.799 391.799 134.732 401.883 128.975 403.248C122.928 404.683 122.859 395.629 128.04 393.967M578 394L573 400L572 400M142 396C144.71 400.331 146.746 400.932 151 398M263 396C262.831 404.168 260.173 414.271 272 410M494 397C490.107 401.298 493.049 403.622 498 404M347 407C338.548 406.722 339.972 398.201 347 400M457.004 398.89C461.143 397.729 460.581 403.203 457.004 403.789C453.045 404.436 454.04 399.722 457.004 398.89M610 405C604.391 402.916 606.405 399.867 611 398M648 398L648 404L654 399M422 404L416 408C411.559 399.146 419.815 399.211 424 406M540 408L535 404C527.721 409.211 522.495 401.39 530 400M670 399C667.809 403.175 662.886 405.664 661 400M678 399C682.478 403.965 685.261 401.547 691 401L692 402L692 403L692 404M432 400L437 402L430 406M480 400L480 403M578 401L583 400M620 400L628 402L625 414M150 401L152 406M316 410L319 401M391 401L396 401M501 402L510 404M535 401L535 404M578 401L579 406M629 401L628 402M224 407C225.567 405.025 231.994 399.408 233.003 405.152C233.836 409.895 226.946 416.033 236 415M305 402C307.305 406.544 306.027 408.608 301 409L305 402M359 403C357.025 406.472 354.975 406.472 353 403L359 403M369 402L364 403M548 402C551.979 402.832 554.243 404.574 551 408M285 405C278.018 412.649 275.525 400.038 285 405M376 403L382 404M294 406L288 406L294 406M286 405L287 406M93 407L100 414M300 410L301 417M59 412L58 414M138 417L141 431L145 424M124 418C124.154 422.718 125.019 424.856 130 425M707 419C702.542 425.979 702.102 436.33 693 439M541 434C528.776 431.099 536.372 418.164 547 422M158 421C151.121 426.903 154.528 432.725 163 433M644 421L643 439C644.516 434.394 650.154 426.425 653 435M653 422L655 422M614.015 424.542C624.096 423.173 626.004 440.406 615.997 441.338C607.133 442.163 604.658 425.812 614.015 424.542M227 425C216.282 437.023 221.068 467.041 241.999 463.757C254.661 461.77 252.565 439.72 247.146 432.044C244.828 428.762 241.283 427.119 238 425M126 426L127 434M735 440C746.565 436.944 732.833 430.786 741 426M698 435L692 432C694.249 427.541 697.249 427.056 702 427M283 428L285 445M662 429C657.931 437.592 668.919 433.598 673 436M713 429C709.621 432.871 707.043 435.235 702 433M728 429C728.838 433.543 727.064 435.995 723 438C723.236 433.684 724.071 431.062 728 429M579 434C580.806 430.728 582.382 430.19 586 431C583.975 434.299 581.718 434.551 578 434C576.797 438.556 578.087 440.561 582 443M682 434L687 431C684.648 435.012 678.144 437.215 685 441M508 443C520.583 442.4 509.512 436.143 509 432L510 431L512 431M272 432C272.06 438.662 273.573 443.039 281 441M348 432L349 437L354 433M565 442C560.107 437.533 562.404 434.194 568 432M335.133 434.086C339.429 431.826 340.525 438.002 336.79 439.673C332.75 441.48 331.803 435.839 335.133 434.086M459 444L463 441L457 438L462 433M470 446L478 440C473.127 437.991 469.487 434.197 477 433M500 433L498 441M536 434L535 441C531.951 438.671 528.983 435.727 533 433M370 434L361 458M550 434C551.89 436.211 551.89 436.789 550 439L550 434M711 434C712.739 437.243 714.344 437.944 718 438M231 440C230.328 437.547 231.138 434.088 234.688 436.086C242.469 440.466 242.077 452.162 233 454M290 440L296 435C296.874 440.77 284.746 446.272 298 447M305 435C306.708 445.94 316.2 437.766 323 437L323 438L324 440L324 440M404 442C392.093 449.253 394.593 434.031 400.856 436.407C404.492 437.787 405.184 443.077 409 445M422 445C414.12 444.399 414.338 436.348 422 436M362 436L367 437M433 446C428.333 441.371 431.649 435.589 438 437M448 444C443.876 441.435 444.497 438.947 448 436M183 438L186 458M292 438L294 440M722 439L721 443M131 463C129.614 457.643 127.906 451.45 130.032 446.044C131.51 442.288 136.12 439.79 139.257 443.438C144.598 449.649 132.067 459.957 142 463M272 442L270 449M159 443C157.568 453.044 157.896 452.839 151 460M171 444C172.766 451.906 177.102 451.766 182 446M158 448L154 456M171 451L171 462M610 454L659 451.004L752 455M159 455L161 460"/>
</svg>
