<?xml version="1.0" standalone="no"?>

<!DOCTYPE svg PUBLIC "-//W3C//DTD SVG 20010904//EN"

 "http://www.w3.org/TR/2001/REC-SVG-20010904/DTD/svg10.dtd">

<svg version="1.0" xmlns="http://www.w3.org/2000/svg"

 width="852.000000pt" height="480.000000pt" viewBox="0 0 852.000000 480.000000"

 preserveAspectRatio="xMidYMid meet">

<path fill="#fdfbfd" stroke="none" d="
M0 240

L0 0

L426 0

L852 0

L852 240

L852 480

L426 480

L0 480

L0 240

Z

"/>

<path fill="#c145cd" stroke="none" d="
M128 461

C127 460 126 456 126 452

C125 440 129 435 136 437

C140 439 141 443 139 450

C136 458 136 459 139 459

C140 459 142 459 142 460

C142 461 139 462 136 461

C133 460 133 458 136 451

C138 444 138 442 136 441

C133 438 130 440 129 444

C128 447 128 449 130 458

C131 462 129 464 128 461

Z

M231 461

C226 458 221 453 219 448

C216 441 218 424 222 424

C223 424 222 422 220 420

C218 419 215 417 214 414

C209 406 211 394 217 391

L220 390

L217 388

C210 385 207 370 212 362

C214 358 218 356 218 359

C218 360 217 361 217 361

C213 361 211 375 214 381

C218 390 232 389 237 379

C242 370 241 363 235 360

C232 358 226 358 222 359

C220 359 220 359 220 358

C220 356 222 355 228 356

C235 356 239 358 242 363

C245 369 243 378 237 385

L234 388

L236 389

C240 390 246 395 248 399

C250 406 246 417 240 420

L237 422

L241 424

C246 427 249 433 250 441

C251 454 247 463 239 462

C237 462 233 462 231 461

Z

M245 456

C248 452 248 441 246 434

C243 428 240 425 234 425

C223 426 223 426 222 428

C215 442 225 460 239 459

C242 459 243 458 245 456

Z

M239 418

C245 414 248 402 243 397

C239 391 229 390 224 393

C223 395 222 395 220 394

C216 392 212 401 214 409

C216 413 221 419 225 420

C229 421 235 420 239 418

Z

M167 459

C167 457 168 440 169 439

C169 439 170 440 171 443

C172 445 174 448 174 448

C175 448 177 443 179 436

C181 431 182 433 183 441

C183 445 184 450 184 452

C185 454 185 456 184 456

C183 457 182 455 181 449

C180 445 180 444 179 447

C176 450 175 451 173 450

C171 450 170 450 170 453

C170 455 169 457 170 458

C170 460 168 461 167 459

Z

M158 459

C158 458 158 457 158 456

C158 455 157 454 155 455

C153 455 151 456 150 457

C147 460 147 458 149 453

C151 450 153 446 154 443

C156 435 158 435 159 444

C159 451 160 456 161 458

C161 460 159 460 158 459

Z

M156 451

C156 450 156 449 156 449

C155 448 155 448 154 449

C153 452 153 452 155 452

C156 452 156 451 156 451

Z

M358 456

C358 455 359 450 360 445

L363 436

L360 435

C359 434 358 433 358 432

C358 430 360 430 361 431

C362 433 364 432 367 430

C370 427 370 429 367 435

C366 438 363 444 362 449

C361 454 359 458 359 458

C359 458 358 457 358 456

Z

M608 452

C607 452 607 451 607 451

C607 450 613 449 621 449

C629 449 640 448 646 448

C655 447 663 447 683 448

C697 448 718 449 730 449

C741 450 750 450 750 450

C750 450 751 451 751 452

C751 453 748 453 735 453

C726 453 712 452 704 451

C681 450 651 450 636 451

C613 453 610 453 608 452

Z

M266 449

C266 448 266 446 267 443

C268 440 268 437 268 433

C267 429 268 427 269 426

C270 425 271 427 271 431

C272 435 274 438 276 437

C277 436 278 434 279 430

C279 423 280 422 282 422

C282 422 283 424 282 428

C282 433 282 437 283 439

C285 444 285 444 283 444

C282 444 281 443 281 441

C280 440 280 439 278 440

C276 441 274 441 273 440

C272 440 271 441 270 444

C269 447 267 450 266 449

Z

M289 445

C287 443 285 440 286 437

C287 434 291 431 294 431

C299 431 298 438 292 439

C289 440 289 442 293 442

C298 443 298 446 293 445

C291 445 290 445 289 445

Z

M293 436

C294 436 295 435 295 434

C295 433 292 433 291 435

C289 437 290 437 293 436

Z

M427 443

C426 441 425 440 426 437

C427 435 429 433 430 432

C432 431 436 432 436 434

C437 435 436 435 434 435

C432 434 431 435 430 437

C428 439 429 441 432 442

C433 442 434 443 434 443

C434 445 429 445 427 443

Z

M467 444

C467 443 468 442 470 441

C475 439 476 438 472 437

C467 436 466 434 468 431

C470 428 476 427 476 430

C476 431 475 432 473 432

C472 432 471 432 471 433

C471 433 471 434 472 434

C473 434 475 434 476 435

C479 437 478 440 474 442

C470 445 468 445 467 444

Z

M717 442

C717 440 718 435 720 429

C722 423 729 422 729 427

C729 430 726 436 724 437

C724 437 723 439 722 441

C721 445 718 446 717 442

Z

M725 428

C724 427 724 428 723 431

L722 434

L724 431

C725 430 725 428 725 428

Z

M392 442

C390 440 391 435 394 432

C395 431 397 431 400 431

C407 432 407 433 405 439

C405 440 405 440 406 441

C410 442 409 444 405 443

C401 442 401 442 397 443

C395 444 393 443 392 442

Z

M398 440

C400 438 399 434 397 434

C395 433 393 437 394 439

C395 441 396 441 398 440

Z

M413 442

C411 440 411 436 414 433

C417 430 419 430 421 433

C422 435 421 436 419 434

C418 433 417 433 416 435

C414 438 415 440 418 441

C420 441 421 441 421 442

C421 443 414 444 413 442

Z

M443 441

C437 439 442 428 448 429

C451 429 451 433 448 435

C447 436 445 437 445 437

C444 438 444 439 446 439

C450 440 450 441 448 442

C446 443 446 443 443 441

Z

M456 441

C456 440 457 439 458 439

C460 438 460 438 457 437

C454 437 454 436 454 434

C454 431 456 429 460 429

C463 429 463 431 460 432

C456 432 456 434 460 435

C465 435 465 437 462 439

C460 442 456 442 456 441

Z

M505 441

C504 440 506 439 508 439

C510 439 512 436 511 435

C511 434 509 434 507 434

C502 433 501 430 505 428

C508 426 512 426 512 428

C512 428 511 429 510 429

C507 430 508 430 511 431

C515 433 516 437 513 440

C511 441 507 442 505 441

Z

M578 440

C574 439 574 438 574 434

C573 428 581 423 585 426

C587 427 587 427 585 430

C584 431 582 433 580 433

C575 434 576 437 580 438

C582 438 583 439 583 440

C583 441 580 442 578 440

Z

M582 429

C581 429 580 429 579 429

C579 429 579 429 581 429

C582 429 582 429 582 429

Z

M303 438

C301 435 301 431 303 431

C304 431 304 432 305 434

C305 438 308 439 310 435

C311 432 313 432 314 434

C314 435 315 434 317 433

C320 430 322 430 323 432

C323 433 323 435 323 436

C324 439 322 439 320 437

C319 435 318 435 317 436

C317 437 315 438 314 438

C313 438 311 438 311 439

C309 441 305 441 303 438

Z

M496 436

C496 430 497 427 498 429

C500 430 498 441 496 441

C496 441 496 438 496 436

Z

M529 437

C525 433 524 430 529 429

C531 428 532 427 532 424

C532 417 538 413 544 417

C547 420 545 421 541 419

C538 418 537 418 535 420

C534 422 534 424 534 425

C534 428 535 428 538 429

C543 430 544 432 539 432

C536 432 536 432 535 436

C535 438 534 440 534 440

C533 440 531 439 529 437

Z

M532 432

C530 430 528 432 530 435

C532 437 532 437 532 435

C533 434 532 433 532 432

Z

M560 439

C557 436 557 432 560 428

C564 425 567 425 567 428

C567 430 566 431 564 432

C562 433 561 434 561 434

C560 435 563 438 565 438

C567 438 567 439 565 440

C562 441 562 441 560 439

Z

M609 439

C606 437 604 432 605 427

C605 420 607 419 613 419

C617 420 618 421 620 424

C624 428 623 434 619 438

C615 441 612 441 609 439

Z

M617 435

C620 432 620 430 618 426

C617 423 615 422 611 423

C608 424 608 425 608 428

C607 432 608 433 610 435

C613 438 615 438 617 435

Z

M330 438

C327 435 327 433 330 430

C333 427 336 427 338 431

C340 433 340 434 338 436

C335 440 332 440 330 438

Z

M335 435

C336 434 336 433 336 432

C335 430 335 430 333 432

C332 434 332 435 332 436

C332 437 334 437 335 435

Z

M679 438

C675 435 680 423 684 425

C685 426 686 427 686 429

C687 431 686 432 684 433

C680 434 680 436 683 437

C684 437 685 438 685 438

C685 440 680 440 679 438

Z

M547 437

C545 436 545 431 546 429

C548 426 550 428 549 431

L548 434

L550 432

C551 431 552 430 553 430

C554 430 554 430 552 433

C550 438 548 439 547 437

Z

M733 437

C733 437 734 435 736 435

L740 433

L737 432

C734 431 734 430 734 428

C734 423 738 419 741 422

C741 423 741 424 739 424

C736 426 736 428 740 430

C745 432 742 436 735 438

C733 439 733 438 733 437

Z

M638 435

C635 431 635 429 638 428

C640 427 640 426 640 424

C639 421 641 415 642 416

C643 416 643 419 643 421

L643 426

L648 426

C652 426 652 426 652 430

C653 434 651 435 650 431

C649 430 649 429 647 430

C644 430 644 431 644 433

C643 438 640 438 638 435

Z

M641 432

C641 431 640 431 640 431

C640 431 640 431 640 432

C640 433 640 434 640 434

C641 434 641 433 641 432

Z

M691 436

C691 435 692 434 693 434

C696 433 695 432 692 431

C690 431 689 430 689 428

C688 425 691 422 696 422

C700 421 701 421 702 418

C703 416 704 415 704 415

C706 415 707 417 705 418

C703 421 701 429 702 430

C703 431 704 430 707 427

C710 423 713 423 714 425

C715 425 714 427 712 428

C710 430 710 430 711 432

C711 433 712 434 713 434

C715 434 716 434 716 435

C717 436 717 436 714 437

C712 437 711 437 709 435

C707 433 706 433 703 433

C700 433 700 433 700 429

C699 425 699 425 696 426

C691 426 691 428 695 429

C699 430 700 434 696 436

C694 438 691 438 691 436

Z

M345 434

C344 432 345 428 346 428

C347 427 348 428 348 430

C348 432 348 432 350 430

C352 428 353 429 351 432

C349 435 346 436 345 434

Z

M660 434

C656 433 656 426 659 425

C660 424 661 425 660 428

C659 430 660 431 661 430

C662 428 665 428 665 430

C665 431 665 431 667 430

C671 427 673 427 673 431

C673 434 670 436 669 433

C669 432 668 432 667 433

C666 434 664 435 660 434

Z

M123 430

C123 429 123 427 123 426

C123 424 122 423 121 423

C118 422 118 421 119 420

C120 419 120 418 121 416

C121 414 122 413 123 413

C124 413 124 414 124 416

C123 419 124 420 126 420

C129 422 129 424 127 424

C126 424 125 424 126 428

C127 433 125 434 123 430

Z

M152 429

C150 427 150 425 150 424

C150 418 157 413 158 417

C159 418 158 420 155 422

C153 424 152 425 153 426

C154 427 156 428 158 428

C163 429 162 431 157 431

C154 432 153 431 152 429

Z

M136 428

C135 424 134 415 134 412

C135 408 136 409 137 416

C138 425 139 427 140 423

C142 418 144 419 145 424

C146 429 145 430 143 429

C142 428 141 428 141 428

C140 430 137 430 136 428

Z

M496 424

C496 424 496 423 496 422

C498 421 500 422 500 424

C500 426 497 426 496 424

Z

M651 419

C651 418 651 417 652 418

C652 418 653 418 653 419

C653 420 652 420 652 420

C651 421 651 420 651 419

Z

M297 415

C297 414 296 410 296 407

C296 402 296 401 299 399

C300 398 302 398 303 398

C305 398 307 401 306 404

C306 407 305 407 303 407

C299 408 299 408 300 411

C301 416 298 420 297 415

Z

M304 402

C304 400 301 400 301 403

C300 404 301 405 302 405

C303 405 304 404 304 402

Z

M63 412

C60 411 58 411 58 412

C57 413 55 413 54 412

C54 411 54 410 55 409

C56 407 56 406 55 403

C53 396 52 386 53 382

C54 379 56 376 58 374

C62 370 62 370 69 370

C75 370 78 370 83 372

C93 377 96 384 95 396

C94 403 94 403 97 406

C101 412 100 415 95 410

L92 407

L88 410

C84 413 82 414 82 413

C82 412 79 412 77 413

C70 414 69 414 63 412

Z

M84 406

C86 403 89 402 89 402

C91 402 92 398 92 391

C92 383 89 378 83 376

C76 373 76 373 76 379

C76 382 76 385 77 385

C77 385 78 383 79 382

C81 379 83 377 84 378

C85 379 80 388 78 390

C77 391 76 391 75 391

C73 389 72 389 73 381

L73 372

L68 372

C64 372 63 373 60 376

C59 377 57 380 56 382

C55 387 56 397 58 403

C61 409 64 411 73 410

C79 410 80 409 84 406

Z

M622 412

C622 412 622 409 623 407

C625 401 625 401 621 401

C618 401 615 398 616 397

C617 395 620 395 620 397

C620 398 623 398 626 396

C629 394 632 394 630 397

C629 398 628 401 626 405

C625 410 623 413 623 413

C622 413 622 413 622 412

Z

M260 408

C258 404 259 392 261 392

C262 392 262 393 262 399

C261 407 262 408 267 406

C268 406 270 406 270 406

C271 407 268 410 264 410

C261 411 260 410 260 408

Z

M312 408

C312 407 312 406 314 406

C316 405 316 404 314 404

C313 404 312 403 312 402

C311 400 313 397 316 397

C319 397 320 398 317 399

L315 400

L317 401

C320 401 320 405 317 407

C315 409 312 409 312 408

Z

M275 406

C273 405 273 400 275 399

C277 397 282 398 283 400

C284 402 285 402 286 400

C288 397 288 397 291 399

C295 401 295 402 293 405

C290 407 287 407 285 404

C284 402 284 402 282 405

C280 408 277 408 275 406

Z

M281 403

C282 402 281 402 279 402

C277 402 277 402 277 403

C277 404 277 405 278 405

C279 405 280 404 281 403

Z

M291 403

C291 403 290 402 289 402

C288 402 288 402 288 403

C288 403 288 404 289 404

C290 404 291 403 291 403

Z

M387 403

C386 401 385 398 384 397

C384 396 384 395 384 394

C385 393 386 391 386 389

C386 388 387 387 388 387

C389 387 389 387 389 391

C388 395 388 395 391 396

C395 397 395 399 392 399

C390 400 390 400 390 402

C391 407 389 407 387 403

Z

M412 405

C410 404 410 398 412 396

C414 394 420 394 422 397

C422 398 422 399 422 399

C422 400 422 401 423 401

C425 403 424 405 421 404

C420 404 419 404 417 405

C415 407 415 407 412 405

Z

M416 402

C418 400 417 398 415 398

C413 398 412 400 413 402

C414 404 415 404 416 402

Z

M535 405

C533 404 532 404 531 404

C530 405 527 406 526 406

C522 406 520 399 523 396

C526 394 530 394 530 397

C530 398 529 399 527 398

C526 398 525 398 525 400

C525 401 526 402 528 402

C530 402 530 401 531 399

C531 396 531 395 533 395

C535 395 535 396 535 399

C536 400 536 402 537 403

C539 404 539 407 538 407

C537 407 536 406 535 405

Z

M547 405

C547 405 547 404 549 404

C552 403 551 402 547 402

C543 402 543 401 543 400

C543 398 544 397 545 396

C547 394 551 395 550 397

C550 398 550 398 551 399

C554 399 554 404 552 405

C549 407 547 407 547 405

Z

M337 404

C336 401 336 399 339 396

C341 393 344 393 345 395

C347 398 346 399 343 397

C342 396 340 398 340 401

C340 402 340 403 343 403

C348 403 347 405 342 405

C339 406 338 405 337 404

Z

M350 403

C347 398 351 395 357 398

C361 400 358 406 353 406

C352 406 351 404 350 403

Z

M356 402

C356 401 355 401 354 401

C353 401 353 401 353 402

C353 402 354 403 355 403

C355 403 356 402 356 402

Z

M575 402

C574 400 573 399 572 398

C569 398 569 396 571 396

C572 396 573 394 574 392

C575 388 577 389 577 393

C576 395 577 396 580 396

C583 396 583 398 580 398

C578 399 578 399 578 402

C579 406 577 406 575 402

Z

M148 404

C148 403 148 402 148 401

C148 400 147 400 145 400

C141 400 140 398 139 395

C139 391 141 391 142 394

C143 397 144 397 147 393

C148 392 149 391 150 391

C150 392 150 403 149 404

C149 404 149 404 148 404

Z

M362 403

C361 402 360 401 361 400

C361 398 364 397 364 399

C364 401 365 401 366 398

C367 396 369 397 369 399

C369 401 365 405 364 405

C363 405 362 404 362 403

Z

M374 403

C373 402 373 401 373 400

C374 397 376 397 376 399

C376 401 376 401 379 399

C380 397 381 397 381 400

C383 403 382 405 380 404

C379 403 378 403 377 404

C375 405 375 405 374 403

Z

M427 404

C426 403 428 402 430 402

C431 402 433 401 433 401

C433 400 433 399 431 399

C428 399 426 398 427 396

C429 393 433 393 432 395

C432 396 432 397 434 397

C437 398 437 402 435 403

C432 405 428 405 427 404

Z

M451 402

C447 400 452 392 457 393

C461 393 462 400 457 402

C454 404 454 404 451 402

Z

M458 398

C458 397 457 396 455 397

C452 397 452 400 455 400

C457 400 458 399 458 398

Z

M592 402

C591 401 591 401 589 401

C587 402 586 401 585 400

C584 398 584 391 586 389

C588 387 588 387 588 393

C587 398 588 398 591 396

C593 395 594 396 595 400

C596 403 595 404 594 404

C593 404 592 403 592 402

Z

M604 402

C600 400 600 397 603 395

C607 392 611 392 611 395

C611 396 610 397 608 398

C604 399 604 399 607 399

C610 400 611 401 609 403

C608 404 606 404 604 402

Z

M645 402

C643 400 644 393 646 393

C647 392 648 393 647 396

L646 400

L649 397

C653 392 655 394 651 399

C649 403 646 404 645 402

Z

M689 403

C689 402 689 401 689 400

C689 398 688 398 685 400

C682 402 678 402 676 399

C674 397 675 394 676 394

C677 394 677 395 678 396

C679 399 683 399 685 397

C689 393 691 395 691 401

C691 403 690 404 689 403

Z

M121 399

C119 395 120 392 124 390

C127 388 128 388 130 390

C134 392 134 396 131 400

C127 404 123 403 121 399

Z

M129 398

C131 396 131 393 129 392

C128 391 123 394 123 395

C123 399 125 401 129 398

Z

M466 400

C462 397 462 395 465 394

C467 393 468 393 468 389

C468 384 471 380 475 381

C478 383 478 384 474 385

C471 385 471 385 471 389

C470 393 471 394 472 395

C474 396 474 396 472 397

C471 397 471 399 471 400

C471 403 469 403 466 400

Z

M488 401

C486 398 486 394 490 392

C495 390 498 395 493 397

C490 398 490 398 495 400

C496 400 497 401 497 401

C497 403 491 403 488 401

Z

M507 401

C507 400 506 399 505 400

C503 400 502 401 501 401

C498 402 497 400 498 397

C498 396 499 396 500 396

C501 397 502 397 504 396

C506 395 507 395 508 397

C510 399 510 403 508 403

C507 403 507 402 507 401

Z

M659 402

C658 401 657 400 657 398

C657 396 657 395 659 395

C660 394 661 395 660 396

C660 398 660 399 661 399

C663 400 668 397 668 395

C668 394 668 394 669 394

C669 394 670 395 670 396

C670 400 662 404 659 402

Z

M477 393

C478 385 479 382 480 383

C481 383 481 386 481 389

C480 394 481 394 483 395

C485 396 485 398 482 398

C480 398 480 398 479 399

C479 401 478 402 478 402

C477 402 477 399 477 393

Z

M356 387

C356 386 355 382 355 378

C354 370 355 367 359 367

C364 367 365 373 360 376

C359 377 359 379 359 383

C359 387 357 389 356 387

Z

M360 371

C360 370 360 370 360 370

C359 370 359 371 359 372

C359 374 359 375 360 374

C360 373 360 371 360 371

Z

M648 384

C648 383 630 383 609 383

C575 383 536 382 533 381

C532 381 532 380 532 379

C533 378 534 378 536 378

C547 379 606 381 626 380

L648 379

L648 375

C649 367 649 365 651 366

C653 366 653 366 654 365

C654 364 655 363 658 364

C660 364 661 365 662 367

C663 370 661 373 657 373

C654 373 653 373 652 375

C652 377 652 378 652 379

C653 379 656 380 660 380

C670 381 669 383 659 383

C655 383 651 383 651 384

C651 384 650 385 650 385

C649 385 648 384 648 384

Z

M659 368

C659 366 656 366 656 368

C656 369 656 370 658 370

C659 370 659 369 659 368

Z

M291 378

C291 372 291 371 293 370

C296 368 299 368 299 372

C300 375 297 379 295 379

C294 379 293 379 293 381

C293 382 292 383 292 383

C291 384 291 382 291 378

Z

M112 380

C112 378 112 366 113 366

C114 365 116 373 115 377

C114 380 113 382 112 380

Z

M153 379

C149 375 151 367 156 368

C158 368 159 369 159 371

C160 373 159 374 157 375

C152 377 155 379 162 377

C167 376 169 378 165 379

C161 381 154 381 153 379

Z

M312 378

C309 377 309 375 309 372

C308 369 311 365 314 366

C318 366 318 369 315 371

C313 371 312 372 312 373

C312 375 314 377 316 377

C317 377 317 377 317 378

C317 379 314 380 312 378

Z

M254 377

C254 377 255 376 256 376

C259 374 260 373 257 372

C253 372 252 371 253 368

C255 365 259 363 261 364

C263 366 262 368 260 367

C256 367 255 369 259 370

C262 370 262 374 260 377

C258 379 254 379 254 377

Z

M224 377

C224 376 224 374 223 371

C223 367 223 366 225 366

C226 366 226 367 226 372

C227 377 226 379 224 377

Z

M302 376

C301 375 300 373 301 369

C301 364 304 359 306 360

C306 361 306 362 305 364

C303 367 303 373 306 375

C308 376 307 378 305 378

C304 378 303 377 302 376

Z

M123 374

C123 372 123 371 123 370

C125 369 125 369 126 373

C126 376 126 377 125 377

C124 377 123 375 123 374

Z

M144 376

C144 375 144 374 144 373

L144 370

L141 372

C140 373 137 375 135 375

C131 376 130 375 130 373

C129 370 129 369 131 369

C132 369 132 369 132 370

C131 372 133 373 135 370

C136 368 137 368 138 369

C139 370 139 370 141 368

C144 365 146 367 147 372

C147 376 146 378 144 376

Z

M368 376

C365 374 364 371 366 369

C367 367 369 366 370 366

C372 365 373 368 371 371

C369 372 369 373 371 373

C372 373 374 372 375 370

C377 369 378 368 379 369

C379 370 380 370 382 369

C384 368 385 370 383 372

C382 373 380 373 378 373

C377 373 375 374 375 374

C373 376 370 376 368 376

Z

M266 372

C266 368 269 367 269 372

C269 374 268 376 267 376

C266 376 265 375 266 372

Z

M284 374

C282 372 281 372 278 373

C276 374 275 374 274 373

C272 372 272 369 274 369

C275 369 276 369 276 370

C276 370 276 370 277 370

C278 369 279 369 280 369

C281 369 282 369 284 368

C285 368 286 368 287 371

C289 375 288 376 284 374

Z

M344 374

C343 374 343 372 343 371

C343 367 347 365 351 368

C354 370 354 371 352 374

C349 376 346 376 344 374

Z

M349 372

C349 371 349 370 349 370

C348 370 347 370 347 371

C347 373 348 373 349 372

Z

M387 375

C386 374 386 370 388 369

C390 367 394 367 395 369

C396 370 397 372 398 372

C402 373 401 375 397 374

C394 374 392 374 392 375

C391 376 388 376 387 375

Z

M439 375

C439 374 439 373 440 373

C440 373 440 372 439 371

C438 369 438 369 439 367

C440 365 445 364 446 365

C446 368 446 368 447 369

C448 371 447 372 445 374

C441 376 439 376 439 375

Z

M562 375

C562 374 562 373 562 371

C562 369 561 369 560 369

C557 369 557 367 559 366

C560 366 561 363 561 361

C562 356 563 354 564 355

C565 355 565 357 564 359

C564 361 564 363 564 364

C563 365 568 367 572 367

C575 367 576 367 576 370

C576 373 574 374 573 371

C572 369 572 369 568 369

C565 370 565 370 565 372

C565 374 563 376 562 375

Z

M601 374

C599 372 600 368 603 366

C609 363 612 367 606 371

L603 372

L607 372

C613 373 612 375 606 375

C603 376 601 375 601 374

Z

M617 374

C617 374 617 373 619 373

C621 372 621 372 619 372

C614 371 614 368 619 365

C622 364 625 365 625 366

C625 367 624 368 623 368

C621 368 621 368 623 369

C626 371 627 371 627 369

C627 365 629 357 630 357

C630 357 630 359 630 363

L629 370

L635 367

C638 365 641 364 642 364

C643 365 643 367 640 369

C638 370 639 372 642 372

C643 372 644 372 644 373

C644 375 639 375 637 373

C634 370 634 370 631 373

C629 374 628 375 627 374

C625 373 624 373 623 374

C621 376 618 376 617 374

Z

M409 373

C409 371 408 371 406 371

C402 372 399 367 400 361

C400 353 403 352 403 360

C403 366 404 370 407 368

C409 365 412 367 412 371

C412 375 410 376 409 373

Z

M418 373

C415 371 417 367 421 367

C422 367 424 367 424 368

C425 369 426 368 426 367

C427 365 430 365 430 368

C430 370 430 370 432 368

C434 366 434 366 435 370

L436 374

L432 373

C430 373 428 372 427 371

C426 371 425 371 424 373

C422 375 419 375 418 373

Z

M422 371

C422 370 422 370 422 370

C421 370 421 370 421 371

C421 371 421 372 421 372

C421 372 422 371 422 371

Z

M506 374

C503 373 503 371 503 368

C502 364 510 359 511 363

C512 365 510 368 507 368

C506 368 505 368 506 369

C506 371 508 371 513 370

C518 369 518 371 513 373

C509 375 508 375 506 374

Z

M538 373

C538 372 538 368 538 364

C538 356 539 351 541 351

C542 352 543 372 541 373

C540 375 539 375 538 373

Z

M53 373

C53 372 57 365 58 364

C58 364 59 364 60 364

C61 366 56 374 54 374

C53 374 53 373 53 373

Z

M87 370

C85 368 83 366 84 366

C85 364 87 364 90 368

C94 373 92 375 87 370

Z

M594 372

C594 371 593 371 591 371

C589 372 584 373 580 372

C578 372 577 371 578 369

C578 367 582 366 582 368

C582 370 582 370 584 368

C587 366 588 366 588 368

C588 370 588 370 592 368

C596 366 598 367 598 370

C598 374 595 375 594 372

Z

M461 369

C459 366 459 365 462 364

C463 363 464 361 464 359

C464 355 466 352 468 353

C470 354 470 355 468 356

C467 356 467 358 467 359

C467 362 467 362 471 363

C476 363 480 363 481 362

C483 361 485 362 484 365

C484 366 484 367 486 367

C489 368 487 370 481 370

C477 370 475 370 474 368

C471 364 467 365 466 368

C466 372 463 372 461 369

Z

M480 367

C480 367 479 366 479 366

C478 366 478 366 478 366

C478 367 478 368 479 368

C479 368 480 367 480 367

Z

M496 371

C496 370 494 370 493 370

C488 370 486 362 488 356

C489 353 492 352 493 353

C493 353 493 354 492 356

C490 358 490 364 492 365

C492 365 493 365 494 364

C495 363 496 363 497 365

C497 365 497 367 497 367

C497 368 498 369 499 369

C501 369 500 371 498 371

C497 371 496 371 496 371

Z

M122 366

C121 364 122 362 124 363

C125 364 125 367 124 367

C123 367 122 366 122 366

Z

M265 366

C265 365 265 365 266 365

C266 365 267 365 267 366

C267 366 266 367 266 367

C265 367 265 366 265 366

Z

M324 363

C324 361 325 360 326 360

C331 360 330 364 326 365

C324 366 323 365 324 363

Z

M412 363

C412 362 412 361 413 361

C414 362 414 365 413 365

C412 366 411 365 412 363

Z

M105 364

C103 362 105 361 110 360

C117 358 123 358 123 360

C123 361 120 361 117 362

C114 362 110 363 109 363

C106 365 106 365 105 364

Z

M574 363

C574 362 574 362 575 362

C575 362 576 362 576 363

C576 364 575 365 575 365

C574 365 574 364 574 363

Z

M249 358

C249 355 249 355 247 357

C245 360 244 358 245 354

C246 349 247 349 250 352

C253 354 253 360 250 360

C249 361 248 360 249 358

Z

M329 341

C325 341 316 341 307 341

C296 341 287 341 282 340

C278 340 272 339 269 339

L264 339

L263 335

C263 332 263 330 263 330

C264 329 265 331 266 333

C267 336 267 336 275 337

C280 338 294 338 307 338

C319 338 335 339 343 339

L356 339

L357 328

C357 321 359 310 360 304

C361 297 363 289 363 286

L363 281

L355 282

C350 282 341 283 334 283

C327 284 314 285 306 285

C292 286 279 288 268 289

C264 290 263 290 263 289

C263 287 265 287 278 286

C283 285 290 284 294 284

C298 283 305 283 311 283

C316 283 327 282 334 281

C342 280 352 279 357 279

L366 279

L366 284

C365 287 364 294 363 299

C361 312 361 314 363 314

C369 314 385 305 406 291

C411 287 417 283 418 283

C420 282 420 282 417 282

C412 281 413 280 419 279

C422 279 425 278 426 277

C428 276 430 276 434 277

C437 277 450 278 462 279

C473 279 486 280 491 280

C511 283 518 284 534 284

C543 284 550 285 551 285

C552 288 521 287 492 284

C482 283 467 281 458 281

C429 280 433 279 429 287

C427 290 425 293 424 293

C423 294 424 290 426 285

C428 283 429 281 429 281

C428 281 415 288 405 295

C385 308 371 315 366 316

C364 316 362 316 362 316

C361 317 360 322 360 329

C359 336 358 341 357 342

C356 343 335 342 329 341

Z

M668 341

C667 338 668 332 669 328

C670 325 671 324 673 323

C677 323 680 324 680 327

C680 330 676 334 674 335

C672 335 672 337 671 339

C671 342 669 343 668 341

Z

M675 330

C676 329 676 328 676 327

C676 325 675 325 673 327

C672 328 672 329 672 330

C672 332 674 332 675 330

Z

M695 332

C696 329 695 327 694 326

C694 326 693 325 694 324

C695 324 696 322 696 320

C697 317 699 317 699 320

C699 323 699 323 702 324

C704 324 706 324 706 325

C706 326 704 326 702 326

C699 327 698 327 698 330

C698 335 697 338 696 338

C695 338 695 336 695 332

Z

M300 334

C299 333 299 328 301 328

C301 328 302 328 302 330

C302 331 302 331 303 331

C303 331 304 327 304 323

C304 319 303 317 302 317

C302 317 301 317 300 317

C299 316 298 316 296 317

C292 320 290 319 290 316

C290 313 292 311 296 311

C298 311 300 311 300 310

C301 309 304 309 305 311

C307 313 307 327 305 331

C304 334 302 336 300 334

Z

M304 313

C304 312 303 312 303 312

C303 312 302 312 302 313

C302 313 302 314 302 314

C303 314 304 313 304 313

Z

M628 333

C627 331 628 326 630 326

C630 325 632 324 633 324

C636 322 638 322 640 324

C644 328 639 335 633 335

C630 335 628 334 628 333

Z

M636 331

C639 329 639 326 636 326

C635 326 634 326 635 328

C636 331 634 331 632 329

C631 328 631 328 630 329

C630 330 631 333 633 333

C634 333 635 332 636 331

Z

M657 332

C657 330 657 328 657 327

C657 325 658 323 658 321

C658 318 659 317 661 318

C662 318 663 319 662 320

C659 322 660 325 664 326

C667 328 668 330 664 329

C662 329 662 329 662 332

C662 335 659 335 657 332

Z

M644 331

C642 328 642 325 645 325

C646 324 646 325 646 327

C646 330 650 330 652 327

C653 324 655 325 655 328

C655 330 651 333 648 333

C647 333 645 332 644 331

Z

M684 331

C681 329 681 326 683 325

C684 324 685 324 685 324

C685 325 685 326 685 327

C685 330 688 330 688 327

C689 324 691 324 691 327

C691 332 688 334 684 331

Z

M192 330

C190 329 188 328 188 327

C187 325 188 325 192 327

C194 328 198 329 200 329

C206 329 210 325 210 319

C210 315 208 298 207 298

C207 297 206 298 204 299

C201 301 199 300 199 297

C199 293 201 289 204 290

C207 290 207 292 204 293

C203 293 202 294 202 296

L201 298

L204 296

C205 294 207 293 208 294

C210 295 212 311 212 322

C212 325 211 327 209 329

C206 331 205 331 200 331

C197 331 194 331 192 330

Z

M263 325

C263 325 262 317 262 308

C262 295 262 292 263 292

C264 291 265 292 266 292

C267 293 267 294 265 295

C264 296 264 297 265 301

C266 308 266 327 264 327

C264 327 263 326 263 325

Z

M273 322

C273 322 272 317 272 312

C272 304 272 304 275 300

C277 298 278 297 279 298

C281 299 281 301 281 304

C281 309 280 310 278 312

C276 314 276 316 276 319

C276 322 274 325 273 322

Z

M278 309

C280 305 280 302 279 301

C277 300 275 306 275 309

C275 312 276 312 278 309

Z

M77 320

C75 317 76 314 78 317

C79 318 80 319 80 318

C81 317 82 309 82 303

C82 299 82 299 80 299

C79 299 77 298 77 297

C76 295 78 291 80 292

C84 292 85 293 84 306

C84 316 84 319 82 320

C80 323 79 323 77 320

Z

M280 318

C280 317 280 316 280 315

C281 314 282 314 282 315

C283 316 284 316 286 313

C288 311 288 310 288 312

C289 317 281 322 280 318

Z

M310 318

C309 317 309 316 309 315

C310 312 312 312 312 314

C312 316 313 316 314 314

C316 311 318 311 318 313

C318 314 313 320 311 320

C311 320 310 319 310 318

Z

M324 319

C323 319 321 318 321 316

C320 314 323 309 325 310

C325 310 327 311 328 311

C329 311 329 313 329 316

C329 318 329 319 328 319

C327 319 326 319 324 319

Z

M325 315

C325 314 325 314 325 314

C324 314 324 314 324 315

C324 315 324 316 324 316

C324 316 325 315 325 315

Z

M332 316

C331 313 332 310 333 311

C334 311 335 312 335 314

C335 316 336 316 338 314

C338 313 340 313 341 313

C342 313 343 313 343 312

C343 312 344 312 346 312

C347 312 348 312 348 315

C348 317 347 319 347 319

C346 319 346 318 346 317

C346 315 346 315 341 317

C335 319 334 319 332 316

Z

M746 314

C744 312 744 311 744 310

C744 306 742 306 739 309

C737 311 737 311 736 310

C735 309 734 307 735 302

C736 295 736 293 738 293

C738 293 738 295 738 299

L737 305

L741 305

C743 304 746 304 747 303

C750 301 752 301 752 304

C752 305 751 306 749 307

C745 308 746 312 752 313

C754 313 755 314 755 314

C756 316 748 316 746 314

Z

M730 311

C729 311 727 310 726 310

C724 310 723 309 723 308

C722 305 724 303 728 303

C730 303 731 303 731 306

C731 309 731 310 732 310

C733 310 733 310 733 311

C733 312 731 313 730 311

Z

M727 307

C727 306 727 306 727 306

C726 306 726 306 726 307

C726 307 726 308 726 308

C726 308 727 307 727 307

Z

M630 311

C629 310 629 303 630 303

C632 303 633 310 632 311

C631 311 631 311 630 311

Z

M648 310

C647 306 647 293 648 293

C649 293 650 295 650 298

C651 302 651 304 653 304

C654 304 655 303 656 302

C656 300 657 300 658 300

C659 300 660 300 659 303

C659 306 659 306 662 305

C663 305 665 305 665 306

C665 306 666 306 668 305

C671 304 672 305 669 307

C667 310 664 310 659 308

C653 306 652 306 651 309

C650 312 649 312 648 310

Z

M32 308

C30 305 28 297 28 294

C28 289 30 281 33 278

C37 274 49 278 49 285

C49 290 46 293 41 296

L37 298

L37 304

C37 311 35 313 32 308

Z

M33 297

C33 294 33 290 32 288

C32 285 32 285 32 287

C30 290 30 297 32 300

C33 305 34 304 33 297

Z

M41 293

C44 290 45 288 45 285

C46 281 39 277 36 279

C34 280 35 295 37 295

C38 295 39 294 41 293

Z

M642 310

C642 309 640 309 638 309

C635 310 634 309 634 308

C633 306 635 304 637 305

C638 306 639 306 639 305

C641 303 643 303 643 305

C643 306 643 307 644 308

C645 308 646 309 646 310

C646 311 643 311 642 310

Z

M717 309

C716 308 716 308 714 309

C713 309 712 309 711 309

C711 308 708 308 707 308

C703 308 703 308 703 305

C703 303 704 302 705 301

C707 300 708 299 709 297

C712 292 714 296 711 302

C710 307 712 307 716 303

C718 301 720 300 720 300

C720 301 720 303 720 305

C719 309 718 312 717 309

Z

M707 305

C707 304 707 304 707 304

C706 304 706 304 706 305

C706 305 706 306 706 306

C706 306 707 305 707 305

Z

M674 308

C673 306 674 302 675 302

C676 301 677 302 677 304

C677 306 677 306 679 305

C680 305 681 305 682 305

C683 306 684 306 686 305

C689 302 690 302 691 306

C692 309 691 311 689 308

C688 307 688 307 686 308

C682 310 675 310 674 308

Z

M695 308

C694 308 694 306 694 305

C694 304 697 301 699 301

C701 301 701 305 698 305

C697 306 697 306 697 307

C698 307 698 308 698 309

C697 310 696 310 695 308

Z

M49 302

C48 299 49 294 51 294

C52 294 52 294 52 297

C51 301 52 301 54 297

C56 292 58 294 56 299

C54 305 51 306 49 302

Z

M60 301

C58 300 58 299 60 297

C61 293 67 292 69 294

C71 296 71 298 68 301

C66 304 62 304 60 301

Z

M65 300

C65 298 64 296 63 297

C61 298 61 301 64 301

C65 301 65 300 65 300

Z

M88 301

C86 299 86 293 87 293

C88 292 89 293 89 295

C89 300 90 300 94 296

C96 293 100 291 99 293

C99 295 91 303 90 303

C89 303 88 302 88 301

Z

M106 300

C103 297 103 297 105 293

C106 289 109 288 114 290

C117 291 118 292 118 295

C118 297 118 298 120 298

C123 298 122 299 117 300

C115 300 112 301 110 301

C108 302 107 301 106 300

Z

M112 295

C113 291 110 289 108 292

C105 296 106 299 110 298

C111 298 112 297 112 295

Z

M193 300

C192 300 192 299 192 298

C192 296 191 296 189 297

C185 299 183 298 184 294

C184 292 185 290 185 290

C186 289 186 290 186 292

C185 296 187 296 190 293

C194 289 195 289 194 293

C194 295 194 298 195 299

C196 301 194 302 193 300

Z

M167 300

C166 299 166 298 165 297

C165 296 164 296 162 297

C161 298 159 298 158 298

C158 297 156 297 154 297

C152 297 150 297 150 296

C148 294 148 290 149 290

C150 290 151 290 151 291

C151 292 151 294 152 294

C153 295 154 295 155 293

C157 290 159 290 159 293

L160 296

L163 293

C167 290 168 290 168 293

C168 295 168 297 169 297

C170 298 170 301 169 300

C168 300 168 300 167 300

Z

M177 299

C175 298 175 292 176 291

C177 291 179 300 178 300

C178 300 177 300 177 299

Z

M143 298

C142 297 142 296 142 295

C142 294 141 294 141 294

C140 294 140 294 140 294

C140 296 135 299 133 298

C132 298 129 297 128 297

C125 297 124 296 123 294

C121 292 122 289 124 289

C124 289 125 290 125 291

C125 292 125 294 126 294

C127 295 128 295 129 293

C131 290 133 290 133 293

L134 296

L138 293

C142 289 143 289 144 293

C144 295 145 296 146 297

C147 297 147 298 146 299

C145 299 144 299 143 298

Z

M629 296

C629 295 629 294 629 294

C630 293 632 294 632 296

C632 298 630 298 629 296

Z

M554 290

C554 289 554 286 556 282

C557 277 558 271 558 265

C558 258 558 253 562 239

C566 222 569 216 571 216

C572 216 572 217 570 220

C570 221 567 228 565 236

C562 248 561 254 560 265

C560 278 557 289 555 290

C554 290 554 290 554 290

Z

M176 287

C174 286 174 285 176 285

C177 285 179 287 178 288

C177 288 176 288 176 287

Z

M732 286

C724 286 708 286 696 286

C673 287 646 285 634 283

C629 282 628 282 626 283

C624 285 623 283 624 280

C625 279 626 276 626 273

C626 271 626 269 627 268

C628 267 629 263 631 251

C631 249 632 245 632 242

C633 239 633 234 633 230

C633 225 634 216 636 209

C636 207 637 207 639 207

C654 207 725 205 740 204

C750 203 760 202 763 203

L768 203

L768 209

C768 212 767 216 766 219

C765 221 765 225 765 227

C765 229 765 231 763 232

C763 234 761 239 760 244

C758 252 758 254 759 259

C760 263 760 265 758 273

C756 278 755 282 754 282

C753 282 753 277 755 271

C757 267 757 264 757 257

C756 251 757 246 758 241

C759 237 760 233 760 231

L761 229

L754 229

C745 229 739 230 739 231

C740 233 738 234 737 232

C736 230 735 230 731 231

C726 232 698 232 667 231

C653 231 643 231 641 232

C638 232 636 233 636 233

C636 233 632 260 632 264

C631 267 630 270 629 271

C629 271 628 274 628 276

L628 279

L634 280

C653 283 668 284 709 284

C734 283 756 285 756 286

C756 287 749 287 732 286

Z

M646 229

L650 229

L651 221

C651 216 652 212 652 211

L653 208

L646 209

C642 209 639 210 639 210

C638 211 637 218 637 224

C637 229 637 230 639 229

C640 229 643 229 646 229

Z

M692 222

C693 214 694 210 696 211

C696 212 696 213 695 216

C695 217 695 221 695 224

L695 230

L704 229

L713 229

L713 226

C714 222 717 214 719 214

C720 214 719 216 717 221

C716 223 716 226 716 227

C716 230 716 230 731 228

C736 227 737 226 738 218

C739 214 739 213 740 213

C741 213 741 214 740 222

L739 227

L744 227

C747 227 752 226 755 226

L761 225

L763 220

C764 217 764 213 765 210

L765 205

L759 205

C756 205 745 206 735 207

C723 208 707 209 686 209

L656 209

L655 212

C654 214 654 218 654 222

L654 229

L662 228

C667 228 671 227 671 227

C671 227 672 224 672 220

C673 213 675 210 676 212

C676 212 676 214 676 217

C675 219 674 223 675 225

C675 228 675 228 679 229

C681 229 685 229 687 229

L691 230

L692 222

Z

M726 270

C726 270 727 267 728 264

L731 260

L729 259

C727 258 726 257 726 254

C725 251 727 251 728 254

C729 257 729 257 734 253

C739 250 741 250 739 253

C738 254 735 259 732 263

C728 271 726 273 726 270

Z

M428 264

C428 261 427 252 426 246

C426 239 426 233 426 232

C427 229 429 232 429 237

C429 239 429 248 430 255

C431 262 431 268 431 269

C430 272 429 270 428 264

Z

M570 267

C564 264 563 263 562 260

C561 258 562 257 564 257

C565 257 568 256 571 255

C574 253 576 252 577 252

C578 251 577 254 575 255

C573 256 574 256 579 256

C587 255 613 255 613 256

C613 257 607 257 600 257

C593 257 584 258 580 258

C576 259 572 260 570 260

C566 260 566 262 572 265

C577 268 578 269 577 270

C576 270 573 269 570 267

Z

M527 265

C527 264 526 261 526 258

C526 254 525 250 525 248

L524 243

L522 247

C520 250 516 252 515 251

C513 250 512 257 512 261

C512 263 511 264 510 264

C508 264 508 259 510 255

C510 253 511 249 511 246

C512 239 514 238 515 244

C515 250 517 249 521 242

C526 235 527 235 528 241

C528 244 528 250 529 255

C529 259 530 264 530 265

C530 268 528 268 527 265

Z

M609 265

C609 264 612 262 620 256

C624 253 623 251 616 252

C609 252 609 251 615 249

C620 248 623 249 625 252

C626 254 624 257 615 263

C609 267 608 267 609 265

Z

M477 264

C477 263 478 261 480 259

C482 257 485 251 488 246

C493 237 495 234 496 239

C496 240 497 245 499 249

C502 258 502 264 500 263

C499 263 499 262 499 258

C498 256 498 256 486 258

C485 258 483 260 481 261

C479 264 477 264 477 264

Z

M496 253

C496 253 496 251 495 248

C493 243 493 243 489 250

L486 255

L491 254

C494 254 496 253 496 253

Z

M656 260

C655 259 655 257 655 256

C655 253 654 253 651 255

C650 256 648 256 647 256

C646 256 645 256 645 258

C644 261 642 261 643 258

C643 252 648 245 648 251

C648 255 651 253 654 247

C655 245 656 244 656 244

C657 244 659 260 658 261

C658 261 657 261 656 260

Z

M699 259

C698 256 699 252 701 252

C705 251 707 254 707 258

C707 261 706 262 704 262

C702 262 700 261 699 259

Z

M704 258

C704 257 703 256 702 256

C701 255 700 256 701 257

C703 260 705 260 704 258

Z

M464 258

C461 255 462 250 466 244

C471 237 471 236 466 236

C460 236 459 236 460 245

C461 253 460 258 458 258

C458 258 458 254 458 250

C458 245 457 241 456 241

C455 239 456 236 460 234

C465 231 473 233 473 237

C473 238 471 242 469 245

C465 252 464 255 469 257

C470 257 472 258 472 259

C472 260 466 260 464 258

Z

M665 258

C664 257 663 256 663 255

C663 251 670 248 671 251

C672 252 671 253 670 255

C668 256 668 257 669 257

C670 257 671 258 671 259

C671 260 667 260 665 258

Z

M668 253

C668 252 668 252 668 252

C667 252 667 252 667 253

C667 253 667 254 667 254

C667 254 668 253 668 253

Z

M675 257

C675 256 675 254 675 253

C676 250 678 251 678 255

C678 258 678 258 681 256

C682 254 683 254 684 255

C685 255 686 255 688 254

C693 251 694 251 694 256

C694 260 692 261 691 258

C690 257 689 257 688 257

C687 258 684 259 681 259

C676 260 676 260 675 257

Z

M712 257

C711 253 711 252 713 252

C714 252 715 252 715 254

C715 255 715 256 715 256

C716 256 717 255 717 254

C718 252 722 251 722 252

C722 253 715 260 714 260

C714 260 713 258 712 257

Z

M68 248

C68 247 68 242 68 237

C68 229 68 228 71 228

C71 228 72 228 73 228

C76 226 80 229 80 233

C80 236 75 241 74 240

C72 239 72 237 75 236

C76 236 77 235 77 233

C77 230 75 229 73 232

C71 233 71 235 71 242

C72 251 70 253 68 248

Z

M171 247

C170 246 171 234 171 230

C172 227 172 227 176 227

C178 227 180 227 181 228

C183 230 183 235 180 237

C178 240 175 240 175 238

C175 237 175 237 176 237

C179 237 181 233 179 231

C178 229 177 230 176 232

C174 233 174 235 174 240

C174 246 173 248 171 247

Z

M59 236

C59 235 58 235 57 235

C55 238 52 237 51 233

C50 230 50 229 51 228

C52 226 54 227 54 231

C54 234 55 234 57 230

C58 227 60 227 60 231

C60 233 61 235 62 236

C64 237 64 239 62 239

C61 239 60 238 59 236

Z

M113 235

C113 230 115 216 117 212

C118 209 120 209 121 210

C121 211 121 212 120 213

C118 215 117 218 116 226

C114 237 112 242 113 235

Z

M202 238

C201 236 200 228 201 227

C202 226 203 223 203 218

C203 213 203 211 205 211

C206 210 206 212 206 218

L205 226

L210 226

C213 226 216 226 216 227

C216 227 213 228 211 228

L206 228

L206 232

C206 236 203 240 202 238

Z

M39 225

C37 214 38 210 39 213

C40 214 41 218 41 222

C41 227 42 232 42 234

C43 237 42 238 41 238

C40 238 40 235 39 225

Z

M82 237

C81 236 80 234 81 232

C81 229 83 228 83 231

C83 235 84 235 86 232

C87 228 89 228 89 231

C88 234 86 238 84 237

C84 237 82 237 82 237

Z

M92 235

C91 233 89 221 90 218

C90 217 92 217 93 217

C95 217 95 218 93 219

C93 220 92 222 93 223

C93 226 94 226 96 226

C104 227 107 230 99 230

L94 230

L95 233

C96 237 94 238 92 235

Z

M126 235

C124 231 124 221 125 219

C127 216 136 216 138 219

C140 222 140 229 138 233

C135 238 129 239 126 235

Z

M136 231

C138 227 138 223 136 220

L134 218

L134 221

C133 224 132 224 131 222

C129 215 126 223 127 229

C128 236 133 237 136 231

Z

M187 236

C185 235 185 232 187 230

C189 228 191 229 189 232

C189 233 188 234 189 234

C190 235 194 232 194 230

C194 229 194 229 195 229

C197 229 196 233 193 235

C190 238 190 238 187 236

Z

M146 233

C144 230 144 228 146 227

C147 225 148 226 148 228

C148 230 148 232 149 232

C151 233 155 230 155 227

C155 226 155 226 156 226

C158 226 157 231 154 233

C152 236 148 236 146 233

Z

M160 233

C159 231 158 230 159 228

C160 227 160 224 160 221

C160 216 160 215 162 215

C163 215 163 216 163 218

C162 224 163 227 167 229

C170 231 170 233 166 232

C164 231 164 232 164 233

C164 236 162 236 160 233

Z

M409 233

C409 232 410 231 412 230

C415 229 422 221 423 218

C424 216 422 212 420 207

C420 207 420 207 421 207

C423 207 426 212 426 217

L426 221

L440 220

C448 220 460 219 467 218

C473 218 496 217 518 216

C540 216 558 215 558 215

C560 214 563 215 563 216

C563 218 551 219 515 219

C494 220 472 221 465 221

C457 222 445 223 438 223

L424 223

L419 228

C414 233 410 235 409 233

Z

M770 231

C770 230 770 230 771 230

C772 230 773 230 773 231

C773 231 772 232 771 232

C770 232 770 231 770 231

Z

M779 231

C779 230 779 230 780 230

C781 230 782 230 782 231

C782 231 781 232 780 232

C779 232 779 231 779 231

Z

M788 223

C788 222 788 222 789 222

C790 222 791 222 791 223

C791 223 790 224 789 224

C788 224 788 223 788 223

Z

M413 212

C409 208 404 203 402 202

C386 194 378 190 374 189

C371 188 368 186 366 185

C364 184 361 184 359 184

C356 184 355 184 355 186

C355 188 356 192 358 195

C359 200 360 202 359 203

C358 204 349 204 325 205

C292 205 275 206 266 208

C263 209 261 209 261 209

C259 208 262 207 268 206

C283 203 296 202 326 202

C343 202 357 201 357 201

C357 200 356 198 355 196

C353 192 352 174 354 166

L354 162

L340 162

C321 161 299 161 281 162

C272 162 266 162 266 161

C266 160 269 160 285 159

C305 158 319 158 337 159

C348 160 353 159 356 159

C360 157 361 158 359 160

C357 162 356 169 356 175

C355 179 357 180 361 181

C362 181 364 181 366 182

C368 183 372 185 376 187

C382 189 388 192 404 200

C411 204 425 220 421 219

C420 219 417 216 413 212

Z

M788 214

C788 213 788 213 788 213

C789 213 790 213 790 214

C790 214 789 215 789 215

C789 215 788 214 788 214

Z

M789 207

C789 206 789 206 790 206

C790 206 791 206 791 207

C791 207 790 208 790 208

C789 208 789 207 789 207

Z

M149 195

C149 193 150 188 151 182

C152 177 153 172 153 172

C153 171 151 172 149 174

C146 177 144 177 141 175

C139 174 138 173 139 170

C139 169 140 167 140 167

C141 166 142 167 141 169

C140 171 142 174 144 174

C145 174 148 171 151 169

C158 162 159 163 156 175

C155 179 153 186 152 190

C150 199 148 201 149 195

Z

M267 197

C267 196 267 188 267 180

C267 168 267 164 268 165

C269 165 269 169 269 182

C269 197 269 201 267 197

Z

M300 195

C300 195 299 191 299 187

L299 179

L302 178

C306 177 309 179 309 182

C309 186 306 190 304 190

C303 190 303 191 303 192

C303 196 301 198 300 195

Z

M305 185

C307 183 306 181 304 181

C302 181 301 184 302 185

C303 187 304 187 305 185

Z

M297 194

C297 194 297 194 298 194

C298 194 299 195 299 195

C299 195 298 196 298 196

C297 196 297 195 297 194

Z

M322 190

C321 190 322 189 322 189

C324 188 324 186 322 184

C320 183 320 182 320 181

C321 180 322 178 322 176

C322 169 325 169 325 176

C325 181 325 182 327 182

C328 183 329 183 327 184

C326 185 326 187 326 189

C326 192 323 193 322 190

Z

M311 188

C309 187 309 181 311 181

C311 181 312 182 312 184

C313 186 314 186 315 183

C315 181 316 180 317 180

C318 180 317 186 316 188

C313 190 312 190 311 188

Z

M278 186

C277 183 277 172 278 171

C280 170 281 173 281 181

C281 189 280 190 278 186

Z

M294 187

C293 186 293 186 291 187

C288 188 287 188 286 187

C284 185 284 179 286 180

C286 180 287 181 287 182

C287 185 290 185 292 182

C294 179 296 179 296 182

C296 184 296 186 297 186

C298 187 298 189 296 189

C295 189 294 188 294 187

Z

M63 176

C60 173 59 169 59 164

L59 160

L56 164

C54 167 49 169 47 167

C45 165 44 165 42 172

C39 177 39 178 38 176

C38 175 38 172 40 169

C41 166 43 161 43 159

C44 155 45 154 46 159

C47 163 48 165 51 165

C54 165 55 162 57 153

C58 147 58 145 59 146

C61 146 61 148 62 159

C62 170 63 176 66 176

C66 176 67 176 67 177

C67 179 65 179 63 176

Z

M74 176

C70 173 69 169 72 165

C74 162 78 161 79 163

C81 164 80 165 79 167

C78 168 77 170 76 170

C75 170 74 170 74 171

C73 172 76 175 79 175

C81 175 82 175 82 176

C82 178 77 178 74 176

Z

M77 165

C76 164 75 165 75 167

C75 167 75 167 76 166

C77 166 77 165 77 165

Z

M106 177

C105 177 104 175 103 173

L102 169

L99 173

C96 175 95 176 94 175

C92 174 91 174 91 175

C91 175 89 176 88 176

C85 176 83 173 84 169

C84 165 86 165 86 169

C87 174 88 174 90 172

C91 169 92 169 94 171

C96 172 97 172 99 169

C101 166 104 166 105 168

C105 168 106 170 106 172

C106 174 107 175 109 175

C111 175 111 176 109 177

C108 177 107 177 107 177

C107 177 106 177 106 177

Z

M113 174

C110 171 112 166 117 166

C120 166 122 167 122 170

C122 174 116 177 113 174

Z

M118 170

C119 169 118 169 117 169

C116 169 116 169 116 171

C116 173 118 173 118 170

Z

M126 173

C125 172 125 167 126 167

C127 167 128 168 128 169

C128 171 128 171 130 168

C131 166 133 165 133 165

C135 165 135 166 132 170

C130 173 128 174 126 173

Z

M568 122

C567 121 567 121 574 120

C582 119 585 119 585 121

C585 122 584 122 581 122

C579 122 575 122 573 123

C570 124 569 123 568 122

Z

M658 117

C657 115 657 115 655 115

C652 116 652 115 651 114

C650 111 651 110 653 110

C653 110 654 110 654 111

C654 112 655 112 657 112

C661 112 661 112 661 116

C662 119 661 120 660 120

C659 120 658 118 658 117

Z

M668 117

C666 115 666 113 669 109

C673 106 675 106 677 108

C678 110 677 113 672 114

L669 116

L673 115

C674 115 677 115 677 114

C678 114 679 114 679 115

C679 116 678 117 676 117

C671 119 670 119 668 117

Z

M674 111

C674 110 674 110 674 110

C673 110 672 110 672 111

C672 111 672 112 672 112

C673 112 674 111 674 111

Z

M632 116

C631 115 630 115 629 116

C626 117 623 115 622 111

C621 107 622 101 623 102

C624 102 624 103 624 105

C623 109 625 114 627 114

C628 114 629 113 630 112

C632 109 633 109 634 112

C634 113 635 114 637 114

C640 114 641 115 638 116

C635 118 634 118 632 116

Z

M645 116

C643 114 642 111 643 111

C645 111 648 116 647 117

C646 117 645 117 645 116

Z

M610 114

C609 112 612 108 614 108

C616 108 618 110 617 112

C616 113 615 113 615 112

C614 110 614 110 613 112

C612 114 613 115 617 114

C619 113 621 113 621 114

C622 115 618 117 614 117

C611 117 610 116 610 114

Z

M595 115

C594 115 594 113 594 112

C594 108 595 107 600 107

C603 107 603 107 603 110

C604 112 604 113 606 113

C609 114 607 115 602 115

C599 115 595 115 595 115

Z

M599 111

C597 110 596 110 596 112

C596 112 596 113 598 113

C599 113 600 112 599 111

Z

M566 110

C566 107 567 104 568 104

C569 102 571 102 572 104

C572 105 572 107 573 108

C574 110 578 105 578 101

C578 96 579 97 582 103

C583 106 585 109 586 111

C590 114 587 115 584 112

C582 110 581 108 580 107

C580 106 579 106 578 108

C576 111 572 111 570 109

C569 107 569 108 569 111

C568 112 567 114 567 114

C566 115 566 113 566 110

Z

M691 109

C691 105 691 105 690 105

C687 106 685 103 686 101

C686 100 687 100 688 100

C690 102 692 101 692 96

C692 91 693 90 694 93

C695 95 696 95 697 94

C700 92 701 92 701 94

C701 95 700 96 699 97

C696 100 696 101 699 99

C702 98 704 98 704 100

C704 100 702 101 700 102

C696 104 696 104 696 107

C696 109 693 113 691 113

C691 113 690 111 691 109

Z

M483 110

C469 109 432 106 420 105

C402 103 330 103 309 105

C298 106 291 106 283 105

C269 104 268 104 272 103

C274 102 277 102 284 103

C291 103 296 103 304 102

C310 102 334 101 359 101

C398 100 406 101 424 102

C450 105 472 107 495 107

C509 108 514 108 514 109

C515 110 501 111 483 110

Z

M645 108

C644 107 644 105 646 105

C647 105 648 105 648 107

C648 108 646 109 645 108

Z

M556 95

C556 93 558 92 561 93

C562 93 565 93 567 92

C572 90 574 90 574 91

C574 93 568 95 561 96

C557 96 556 96 556 95

Z

M510 69

L510 44

L507 50

C499 65 488 72 483 67

C481 65 481 65 480 69

C479 72 478 75 477 77

C476 79 475 81 475 83

C474 85 474 87 473 87

C471 87 472 82 475 75

C477 68 478 65 478 56

C479 49 479 46 480 46

C480 46 481 48 481 51

C482 62 483 66 488 66

C492 66 500 58 504 49

C513 33 514 34 514 67

C514 91 513 95 512 95

C511 95 510 91 510 69

Z

M275 90

C275 90 274 86 274 82

C274 78 273 69 272 62

L271 49

L266 50

C259 51 253 51 252 50

C252 49 259 48 278 47

C286 46 293 45 294 45

C297 43 298 43 298 45

C298 47 293 49 283 49

L274 50

L275 56

C277 80 278 90 277 91

C276 91 275 91 275 90

Z

M618 89

C618 88 618 87 620 87

C623 86 622 85 617 85

C612 85 610 83 613 79

C615 76 620 73 621 75

C622 75 621 76 621 76

C620 77 618 78 617 79

L614 81

L617 81

C622 82 625 85 622 88

C621 90 618 90 618 89

Z

M628 89

C628 88 629 87 632 87

C636 86 636 86 630 84

C628 83 627 82 627 82

C626 80 631 75 634 76

C636 76 636 78 634 78

C633 78 631 79 631 80

C630 81 630 81 633 82

C639 83 640 84 640 85

C640 86 638 88 637 88

C634 90 628 90 628 89

Z

M318 87

C318 86 317 81 317 75

L316 65

L311 73

C306 82 304 83 302 78

C300 73 300 44 302 42

C303 42 304 42 304 42

C304 43 304 50 304 60

C304 69 304 77 304 77

C305 78 307 76 310 71

C313 65 315 63 316 63

C319 62 319 64 320 76

C320 80 321 85 321 86

C322 89 320 89 318 87

Z

M459 87

C458 86 456 83 455 80

L454 76

L449 77

C446 77 443 78 442 78

C441 79 440 78 441 77

C441 75 444 74 450 74

C454 73 454 74 453 61

L452 54

L448 62

C444 71 436 82 433 84

C432 85 431 85 431 85

C431 84 433 80 436 76

C439 72 444 64 447 59

C449 53 452 47 452 47

C454 43 455 46 456 58

C456 70 457 75 459 75

C459 75 460 75 460 76

C460 77 459 78 459 78

C457 78 459 82 461 85

C464 88 461 89 459 87

Z

M564 87

C564 86 563 85 563 84

C562 81 558 82 556 85

C555 87 553 88 553 87

C552 86 561 68 563 68

C564 68 564 70 565 74

C565 80 565 80 568 80

C571 80 571 82 568 82

C566 83 565 83 566 86

C567 89 565 90 564 87

Z

M562 78

C563 75 561 75 560 77

C559 80 559 81 561 80

C561 80 562 79 562 78

Z

M574 87

C570 85 574 77 579 77

C582 77 582 79 579 79

C576 80 574 83 575 85

C576 86 577 86 580 85

C584 83 586 85 581 87

C577 89 577 89 574 87

Z

M588 88

C586 87 586 83 588 80

C590 77 595 77 595 79

C595 79 594 80 593 80

C592 80 589 83 589 85

C589 85 590 85 593 85

C595 85 597 85 597 85

C597 87 591 89 588 88

Z

M334 86

C332 85 332 83 332 79

C332 74 332 73 335 69

C339 65 343 64 345 67

C348 70 343 75 337 76

C334 77 333 79 334 82

C336 85 339 85 348 82

C355 79 358 79 355 81

C353 83 341 88 338 88

C337 88 335 87 334 86

Z

M341 71

C343 69 344 69 342 69

C341 68 339 69 338 71

C334 74 336 74 341 71

Z

M601 86

C597 83 601 76 606 76

C610 76 609 79 606 81

C602 84 602 84 606 85

C610 85 610 85 608 86

C606 88 604 88 601 86

Z

M406 84

C402 81 403 75 409 67

C416 57 419 52 419 46

C419 40 416 37 409 37

C404 37 403 38 400 41

C396 45 396 45 396 43

C396 38 407 33 414 35

C424 37 424 51 413 66

C402 81 404 84 421 82

C423 82 425 82 425 83

C426 86 409 87 406 84

Z

M400 71

C401 51 402 41 404 40

C406 39 407 41 406 43

C405 45 403 71 403 80

C403 82 402 83 401 83

C400 83 399 81 400 71

Z

M547 66

C545 64 546 63 548 64

C549 65 552 65 555 64

C560 62 561 62 562 64

C564 65 563 65 560 66

C548 68 548 68 547 66

Z

M654 61

C654 61 654 59 655 57

C655 54 656 52 655 52

C655 52 653 52 651 53

C649 55 646 55 644 55

C643 55 640 56 639 56

C636 57 633 53 634 50

C635 46 638 47 637 51

C636 54 638 55 642 52

C645 49 646 49 646 51

C646 53 646 53 651 51

C658 47 660 50 657 58

C656 62 655 62 654 61

Z

M605 59

C604 58 604 54 605 52

C606 51 608 49 609 49

C612 48 613 47 613 44

C613 40 614 35 615 36

C616 37 616 41 616 45

C615 51 615 53 616 55

C618 57 618 58 615 57

C614 57 612 57 611 58

C610 60 606 60 605 59

Z

M612 53

C612 50 608 52 608 55

C607 58 607 58 609 56

C611 55 612 54 612 53

Z

M547 57

C546 55 545 43 546 39

C547 37 552 34 555 35

C557 35 560 39 559 43

C559 44 559 47 557 49

C556 52 556 54 556 54

C556 54 557 55 559 55

C561 55 563 55 563 55

C563 57 558 58 555 57

C553 56 553 54 555 48

C557 42 556 38 554 38

C550 37 549 40 550 49

C551 59 550 60 547 57

Z

M565 57

C561 53 565 45 570 47

C572 48 572 49 569 50

C566 50 565 56 568 56

C571 56 573 53 573 49

C573 45 575 47 576 52

L577 57

L581 53

C586 48 587 48 587 51

C587 54 588 54 592 51

C594 50 596 49 597 49

C598 50 598 58 596 58

C596 58 595 57 595 56

C594 53 594 53 591 55

C589 57 585 57 584 55

C584 54 583 55 581 56

C579 59 575 59 574 57

C574 56 573 56 572 57

C569 59 567 59 565 57

Z

M622 56

C620 54 620 50 623 48

C625 47 630 49 630 51

C631 54 628 58 625 58

C624 58 623 57 622 56

Z

M628 52

C628 52 627 52 627 52

C626 52 626 53 626 54

C626 54 626 54 627 54

C627 54 628 53 628 52

Z

M231 452

C231 451 231 450 233 450

C236 448 239 445 238 443

C237 442 236 441 235 442

C230 442 230 442 232 439

C234 436 233 434 231 434

C229 434 229 434 229 436

C230 439 228 439 227 437

C225 434 227 431 230 431

C233 431 237 433 237 436

C237 437 237 438 239 439

C241 441 241 447 238 449

C235 452 232 453 231 452

Z

M226 413

C225 412 226 411 228 407

C231 401 231 401 228 401

C227 401 224 402 223 403

C221 406 221 406 221 404

C221 399 230 395 233 399

C234 400 233 401 232 405

C229 411 229 411 232 411

C235 410 235 412 232 414

C229 415 228 415 226 413

Z

"/>

<path fill="#ac2537" stroke="none" d="
M235 462

C225 459 219 452 218 440

C217 433 218 428 221 425

C223 423 223 422 223 422

C220 421 215 416 213 412

C211 407 211 400 214 396

C216 392 219 390 222 391

C223 391 224 391 224 391

C224 390 222 389 220 389

C210 387 206 368 214 359

C217 356 218 358 215 362

C212 365 211 370 212 377

C216 392 233 391 239 376

C244 365 238 357 225 358

C220 358 219 358 221 357

C223 355 232 355 235 357

C245 362 245 375 236 385

L233 388

L237 390

C241 391 243 393 245 395

C247 398 248 399 247 405

C247 413 245 417 239 421

C237 422 237 422 238 422

C241 423 246 428 248 433

C250 439 250 451 248 455

C245 461 241 463 235 462

Z

M246 455

C249 449 249 438 246 432

C242 426 239 424 230 425

C222 426 222 426 221 429

C218 436 219 446 224 452

C228 458 232 460 239 459

C244 459 244 459 246 455

Z

M239 418

C245 413 248 402 243 396

C239 391 229 389 224 393

C223 394 222 395 221 394

C220 393 219 393 217 395

C214 398 214 399 214 403

C214 409 217 415 222 418

C224 420 226 421 231 420

C234 420 238 419 239 418

Z

M127 455

C124 444 127 438 133 438

C139 438 141 443 138 452

C135 458 136 459 139 459

C141 459 141 460 139 461

C137 462 134 460 134 458

C134 457 134 454 136 452

C139 443 138 440 133 440

C127 440 126 446 130 459

C131 461 130 462 129 462

C128 462 127 460 127 455

Z

M158 457

C157 455 157 454 154 455

C152 455 150 456 150 457

C147 460 147 458 150 453

C151 450 153 445 154 442

C155 439 156 437 156 437

C157 437 158 441 158 446

C159 451 160 456 160 457

C160 458 160 460 160 460

C159 460 158 458 158 457

Z

M156 449

C157 446 155 446 154 450

C153 452 153 453 154 452

C155 452 156 451 156 449

Z

M168 450

C168 444 169 440 169 440

C170 440 171 440 171 441

C171 443 173 448 174 448

C176 448 178 442 179 437

C180 435 180 434 181 434

C181 434 182 436 183 445

C183 448 184 452 184 454

C185 456 184 457 184 456

C183 456 182 453 181 449

L180 443

L178 447

C177 449 176 450 173 449

C170 449 170 450 170 456

C170 458 169 460 168 460

C168 460 168 456 168 450

Z

M358 456

C358 455 359 451 360 447

C364 434 364 435 362 434

C359 434 357 433 358 431

C359 431 360 431 361 432

C363 433 364 433 365 431

C367 430 370 429 369 430

C366 437 363 445 362 449

C360 455 359 457 358 456

Z

M746 453

C746 452 738 452 729 452

C720 452 699 451 682 450

C658 449 650 449 643 450

C623 453 605 453 607 451

C607 450 611 450 614 450

C618 451 627 450 634 449

C649 447 683 447 701 448

C707 449 718 450 726 450

C742 450 750 450 750 452

C751 454 747 454 746 453

Z

M267 446

C269 439 269 436 268 432

C268 430 268 428 268 427

C269 425 269 425 270 427

C271 428 272 430 272 432

C272 435 274 439 275 439

C277 439 279 435 280 429

C280 420 282 421 282 430

C282 435 283 439 283 441

C284 444 284 444 282 442

C281 441 280 440 280 439

C280 438 279 438 278 439

C277 440 275 441 274 440

C271 440 271 440 270 443

C270 445 269 447 268 448

C266 449 266 449 267 446

Z

M289 444

C284 439 287 432 293 432

C297 432 298 434 295 437

C292 440 291 440 290 438

C290 438 291 437 292 437

C295 435 295 434 293 434

C291 434 289 436 289 439

C289 441 291 444 294 444

C296 444 296 444 296 445

C295 446 291 446 289 444

Z

M428 443

C423 441 429 430 435 432

C438 433 437 435 433 435

C431 435 430 435 429 437

C428 440 430 443 432 443

C433 443 434 443 434 444

C434 445 431 445 428 443

Z

M468 443

C468 443 469 442 471 441

C473 440 475 439 475 439

C476 437 475 437 470 436

C468 436 468 435 468 433

C468 430 471 428 474 429

C476 430 476 432 474 431

C468 431 468 433 474 435

C478 436 479 438 476 441

C473 443 469 445 468 443

Z

M718 444

C717 443 718 436 720 431

C721 427 722 425 724 425

C728 424 729 426 727 431

C726 434 725 436 724 436

C723 436 722 438 721 441

C720 444 720 445 718 444

Z

M725 431

C726 429 726 427 726 427

C724 426 723 430 723 432

C723 434 723 434 725 431

Z

M393 442

C390 439 390 436 393 433

C394 432 396 432 400 432

C404 432 405 432 405 434

C406 436 405 437 404 438

C403 439 403 440 405 441

C405 441 407 441 407 441

C408 441 409 442 409 443

C409 443 408 443 406 443

C402 442 399 442 397 443

C395 443 394 443 393 442

Z

M399 439

C401 437 400 434 398 434

C395 434 394 435 394 438

C394 440 394 441 396 441

C397 441 399 440 399 439

Z

M414 442

C412 441 411 440 412 438

C412 436 413 434 414 433

C416 431 420 431 421 433

C422 435 421 436 419 434

C418 432 415 434 415 438

C414 440 415 440 417 441

C419 441 421 442 421 443

C421 444 416 444 414 442

Z

M442 440

C438 437 443 429 447 430

C452 430 451 433 447 435

C442 437 442 439 446 439

C447 439 449 440 449 441

C449 442 443 442 442 440

Z

M447 433

C447 432 447 432 447 432

C446 432 446 432 446 433

C446 433 446 434 446 434

C446 434 447 433 447 433

Z

M457 441

C457 440 458 439 459 439

C461 438 461 438 458 437

C456 437 454 436 454 435

C453 433 458 428 461 429

C463 429 463 429 460 431

C456 433 456 435 460 435

C464 435 465 437 462 440

C459 442 457 442 457 441

Z

M506 441

C506 440 506 440 507 440

C509 440 513 437 513 435

C513 435 511 434 510 434

C505 433 503 432 503 431

C503 429 508 427 510 427

C514 427 513 428 509 429

C506 430 506 430 511 432

C515 433 515 436 512 439

C510 441 506 442 506 441

Z

M304 438

C301 435 301 431 303 432

C304 432 304 432 304 433

C303 435 307 439 308 438

C309 437 310 436 310 435

C311 433 312 433 313 434

C315 435 316 435 318 433

C321 430 322 430 323 435

C324 439 322 440 321 437

C320 434 320 434 317 436

C315 437 314 437 313 437

C313 437 312 437 311 438

C308 441 306 441 304 438

Z

M496 436

C496 434 496 431 497 430

C498 428 498 428 498 431

C498 435 497 441 496 441

C496 441 496 439 496 436

Z

M576 439

C573 437 573 434 575 429

C577 425 585 424 585 428

C586 430 583 433 579 433

C578 433 576 433 576 433

C575 435 577 438 580 438

C581 438 583 439 583 440

C583 441 578 441 576 439

Z

M583 429

C584 428 583 428 582 428

C580 428 578 429 578 430

C578 431 581 431 583 429

Z

M529 437

C525 432 525 429 530 429

C531 429 532 428 532 424

C532 420 535 416 538 416

C540 416 546 418 545 420

C545 420 543 420 541 419

C537 417 534 419 534 425

C534 428 535 430 539 430

C540 430 542 430 542 431

C542 431 541 432 539 432

C535 432 535 432 535 435

C535 440 533 441 529 437

Z

M533 434

C532 432 532 432 530 432

C528 432 528 432 530 435

C532 437 533 437 533 434

Z

M559 438

C556 434 560 427 565 427

C569 427 568 430 564 432

C560 434 560 437 563 437

C564 437 566 438 566 439

C566 440 561 440 559 438

Z

M608 438

C604 434 604 428 606 423

C607 420 608 420 612 420

C614 420 616 420 618 422

C621 424 622 425 622 429

C622 433 621 435 619 437

C616 440 611 440 608 438

Z

M618 436

C619 434 620 432 620 430

C620 425 617 422 612 423

C608 423 608 423 608 428

C607 436 613 440 618 436

Z

M678 437

C676 433 679 426 683 426

C685 425 685 426 686 427

C687 430 685 433 682 433

C680 433 680 436 682 437

C684 438 684 440 681 440

C680 440 679 438 678 437

Z

M684 429

C684 428 683 428 683 428

C682 428 682 428 682 429

C682 430 682 431 683 431

C683 431 684 430 684 429

Z

M330 437

C326 434 330 428 335 429

C337 429 338 430 338 432

C339 436 337 439 334 439

C332 439 330 438 330 437

Z

M336 433

C337 430 335 430 333 433

C330 435 331 437 334 436

C335 436 336 435 336 433

Z

M547 437

C546 436 546 429 548 428

C548 428 549 429 549 431

L549 435

L551 432

C554 428 554 431 551 435

C549 438 548 438 547 437

Z

M639 436

C636 433 636 429 639 428

C640 427 641 426 641 422

C641 418 641 417 642 417

C643 417 643 418 643 422

L643 427

L648 427

L653 426

L653 430

C653 432 652 434 652 434

C651 434 651 433 651 432

C651 429 650 429 646 429

C644 430 644 430 643 433

C643 438 641 438 639 436

Z

M642 433

C642 431 641 431 640 431

C638 431 638 431 639 433

C640 435 642 435 642 433

Z

M691 437

C691 436 692 435 693 435

C696 433 696 432 692 431

C690 430 689 429 689 428

C688 426 692 423 697 423

C700 423 700 422 701 420

C703 416 706 413 706 415

C706 416 705 418 704 419

C703 420 702 423 702 426

C701 432 703 432 708 427

C711 423 712 423 713 425

C713 426 713 427 711 428

C709 430 709 431 710 432

C711 433 712 434 713 434

C716 435 716 437 713 437

C712 437 710 435 709 434

C707 432 706 432 705 432

C701 434 700 433 700 428

C700 425 699 425 697 425

C692 425 689 428 694 429

C698 430 699 432 697 434

C695 437 692 438 691 437

Z

M733 437

C733 436 734 436 735 436

C736 436 737 435 738 434

C740 433 740 433 737 431

C733 430 733 427 735 424

C737 422 741 421 741 423

C741 423 740 424 739 424

C738 424 737 424 736 426

C736 427 736 428 739 430

C743 432 743 432 742 434

C740 437 731 439 733 437

Z

M346 434

C344 433 344 429 346 428

C346 428 347 428 347 430

C347 433 348 433 350 430

C351 429 351 429 352 429

C352 430 349 436 348 436

C347 436 346 435 346 434

Z

M661 434

C658 433 656 430 657 427

C658 425 660 425 660 428

C659 431 660 431 662 429

C663 428 664 429 664 430

C665 431 665 431 668 430

C670 428 671 428 672 428

C673 429 673 433 672 434

C671 434 671 434 671 433

C671 431 670 431 667 433

C665 435 665 435 661 434

Z

M123 428

C123 426 122 423 121 423

C119 422 119 421 120 421

C121 421 122 419 122 417

C122 412 123 413 124 417

C124 420 124 421 127 422

L129 422

L127 423

C125 424 124 425 126 430

C126 431 126 432 126 432

C125 432 124 431 123 428

Z

M154 430

C150 428 149 424 151 420

C152 417 153 417 155 417

C158 417 158 419 155 421

C150 424 153 430 159 429

C161 429 162 429 162 429

C162 430 160 431 159 431

C156 432 156 432 154 430

Z

M136 427

C135 425 134 411 135 411

C136 411 136 414 137 418

C138 427 138 428 141 423

C142 421 143 420 143 420

C144 420 146 428 145 428

C145 429 144 428 143 428

C142 427 141 427 141 428

C139 430 138 430 136 427

Z

M497 424

C497 423 497 423 498 423

C498 423 499 423 499 424

C499 424 498 425 498 425

C497 425 497 424 497 424

Z

M651 420

C651 419 651 418 651 418

C652 418 653 418 653 419

C653 421 652 421 651 420

Z

M297 410

C296 401 296 401 300 399

C303 397 303 397 305 399

C308 403 306 408 302 408

C300 408 300 408 300 412

C300 419 298 417 297 410

Z

M304 404

C304 403 304 402 304 402

C302 400 300 402 301 404

C301 405 305 405 304 404

Z

M82 413

C82 412 78 412 74 412

C70 413 65 412 63 412

C59 411 58 411 57 412

C55 413 54 412 55 409

C56 407 56 405 55 402

C54 399 53 394 53 389

C53 383 53 381 56 377

C59 372 63 370 69 370

C75 370 85 373 88 376

C94 381 96 390 94 399

C93 403 93 403 96 407

C99 410 100 413 99 413

C98 413 97 411 95 409

L91 406

L88 410

C84 414 83 414 82 413

Z

M80 409

C82 408 84 406 86 404

C87 403 88 402 89 402

C91 402 93 395 92 388

C91 380 87 376 78 373

C76 372 76 373 76 379

C76 383 76 385 76 385

C77 385 78 384 79 382

C81 380 82 379 83 379

C84 379 84 380 81 384

C77 392 77 392 74 390

C73 388 72 387 73 380

L73 372

L69 372

C64 371 60 374 57 379

C53 388 57 408 64 410

C68 411 78 411 80 409

Z

M89 404

C89 404 88 405 86 407

L83 411

L87 408

C88 406 90 404 89 404

Z

M624 406

C625 403 625 400 625 400

C625 399 624 400 623 400

C620 400 617 399 617 397

C617 395 618 395 619 397

C620 398 623 398 627 396

C630 394 631 395 629 397

C629 398 627 402 626 405

C625 409 623 412 623 412

C622 412 622 410 624 406

Z

M261 409

C259 408 259 392 261 392

C261 392 262 395 262 399

C262 404 262 408 262 408

C263 408 265 408 266 407

C268 406 270 406 270 407

C270 407 269 408 267 409

C263 411 262 411 261 409

Z

M313 408

C313 407 313 406 315 406

L317 404

L315 403

C311 402 312 397 317 397

C319 397 319 398 316 399

C314 399 315 402 318 402

C320 402 320 404 317 406

C314 409 313 409 313 408

Z

M274 405

C273 401 275 397 278 398

C284 399 285 403 281 406

C278 408 276 408 274 405

Z

M280 404

C281 403 281 402 281 402

C280 399 275 401 276 404

C277 406 279 406 280 404

Z

M287 406

C285 405 285 400 286 399

C287 399 289 399 290 399

C293 400 294 400 294 402

C294 405 290 407 287 406

Z

M292 403

C292 402 291 402 290 402

C288 402 287 403 288 404

C289 404 292 404 292 403

Z

M548 406

C548 405 549 404 550 403

C552 402 552 402 548 402

C543 401 541 400 544 397

C545 395 550 395 550 397

C550 397 549 398 548 398

C546 398 546 398 546 399

C546 399 546 399 548 399

C553 397 556 402 551 405

C549 407 548 407 548 406

Z

M338 404

C336 402 336 399 339 396

C342 394 343 393 344 394

C346 396 346 398 344 397

C343 397 341 397 340 398

C339 400 338 401 340 402

C340 403 342 403 343 403

C345 403 346 403 345 404

C345 405 339 406 338 404

Z

M388 404

C388 403 387 401 386 399

C385 397 385 396 385 394

C386 393 387 391 387 390

C387 389 387 387 388 387

C388 387 389 388 389 391

C389 394 389 396 390 396

C395 397 395 398 392 398

C390 399 390 399 390 402

C390 404 389 406 389 406

C388 406 388 405 388 404

Z

M411 403

C410 398 414 394 419 395

C421 395 422 396 422 399

C422 401 422 402 423 402

C426 402 425 403 421 404

C419 404 417 405 415 405

C412 406 412 405 411 403

Z

M416 403

C418 402 417 397 416 397

C414 397 412 400 413 402

C414 404 414 404 416 403

Z

M524 404

C523 404 523 402 523 400

C523 397 523 396 525 395

C527 394 528 394 529 395

C530 397 529 398 526 398

C525 397 525 398 525 400

C525 403 526 404 529 402

C531 402 531 401 531 400

C530 397 532 395 534 396

C535 396 536 397 535 399

C535 401 535 402 537 403

C540 405 538 406 535 405

C532 404 531 404 530 404

C527 406 527 406 524 404

Z

M351 404

C349 403 349 398 351 397

C353 396 357 398 358 400

C359 403 355 406 351 404

Z

M355 401

C355 401 354 400 353 400

C351 400 351 401 352 402

C353 403 356 402 355 401

Z

M428 404

C427 402 428 402 430 402

C435 402 435 400 431 399

C427 398 426 397 428 395

C430 393 433 393 432 395

C431 396 431 396 433 397

C435 398 437 399 437 400

C437 403 430 406 428 404

Z

M576 402

C575 400 574 399 572 398

C569 397 569 396 572 396

C574 396 575 395 575 393

C575 391 575 390 576 390

C577 390 577 390 577 393

C576 395 576 396 579 396

C583 396 583 397 580 398

C578 398 577 399 578 402

C579 405 577 405 576 402

Z

M148 403

C148 402 148 401 148 400

C148 398 147 398 146 399

C144 400 143 400 142 398

C139 396 139 392 141 392

C141 392 142 392 142 393

C142 394 142 396 143 396

C144 398 145 397 146 395

C149 390 150 391 150 397

C149 404 149 404 148 403

Z

M361 402

C360 400 361 398 363 398

C363 398 364 399 364 400

L364 402

L366 400

C368 397 369 398 367 401

C365 404 362 404 361 402

Z

M374 401

C374 400 374 398 375 398

C375 398 376 398 376 400

C376 402 376 402 377 400

C380 398 382 398 382 401

C382 403 381 403 378 403

C374 403 374 403 374 401

Z

M592 401

C591 400 590 399 589 400

C588 402 587 402 585 399

C584 397 585 389 587 389

C587 389 588 391 588 394

C588 396 588 399 588 399

C588 399 590 398 591 397

C593 396 594 396 594 396

C594 398 594 399 595 401

C596 403 594 404 592 401

Z

M689 401

C688 397 687 397 685 400

C683 402 679 402 677 400

C675 398 675 395 677 395

C677 395 678 395 678 396

C678 397 678 398 680 399

C681 399 682 399 685 397

C689 393 690 394 691 400

C691 402 691 404 691 404

C690 404 689 402 689 401

Z

M122 401

C119 398 120 393 123 391

C127 388 129 388 132 392

C133 393 134 394 133 396

C132 399 127 403 125 403

C124 403 123 402 122 401

Z

M127 400

C128 400 129 398 130 397

C131 394 131 394 130 392

C128 390 128 390 125 392

C122 394 122 397 124 399

C125 401 125 401 127 400

Z

M450 401

C447 397 455 390 459 393

C461 395 461 399 458 401

C455 403 452 403 450 401

Z

M457 399

C459 397 459 397 456 397

C453 397 453 397 453 399

C453 401 455 401 457 399

Z

M490 401

C489 401 487 400 487 399

C486 396 491 391 494 392

C497 393 496 396 492 397

C489 398 489 398 491 399

C492 400 494 401 495 401

C496 401 496 401 496 402

C495 403 493 403 490 401

Z

M507 401

C506 399 506 399 505 399

C500 401 496 400 499 397

C499 396 500 396 500 397

C500 398 501 398 504 397

C507 396 509 397 508 401

L508 403

L507 401

Z

M602 401

C600 399 600 398 602 396

C604 393 608 392 610 393

C612 395 611 397 608 398

C607 398 605 398 605 398

C603 399 604 400 606 400

C608 400 610 401 610 402

C610 403 604 403 602 401

Z

M645 402

C645 401 645 399 645 397

C645 394 645 392 646 393

C647 393 647 395 647 397

L646 400

L649 397

C652 394 653 394 652 397

C649 401 647 403 645 402

Z

M659 401

C657 400 657 395 659 396

C660 396 660 397 660 397

C660 398 660 399 661 399

C663 400 668 398 668 396

C668 394 668 394 669 394

C670 394 670 397 668 400

C666 401 665 402 665 402

C664 402 663 402 662 402

C662 402 660 402 659 401

Z

M466 399

C463 396 463 395 466 395

C467 395 468 394 468 391

C468 385 469 382 473 382

C475 382 476 383 476 383

C477 384 476 384 474 384

C472 383 471 384 471 385

C469 388 469 394 471 395

C473 396 473 398 471 398

C470 398 470 398 470 399

C470 402 468 402 466 399

Z

M478 394

C478 387 478 384 480 384

C480 384 480 386 480 388

C479 393 479 393 482 395

C485 396 485 398 482 397

C481 397 480 397 480 399

C479 403 478 400 478 394

Z

M356 385

C356 384 355 380 355 377

C354 370 356 366 360 367

C363 367 363 372 361 376

C359 377 359 380 359 382

C359 387 357 389 356 385

Z

M360 371

C361 369 360 368 359 369

C359 369 358 370 358 372

C357 374 358 375 359 374

C359 374 360 373 360 371

Z

M291 383

C290 382 290 373 291 372

C292 371 296 369 298 369

C298 369 298 370 298 373

C298 376 298 377 296 377

C294 378 293 379 293 381

C292 382 292 383 291 383

Z

M297 373

C297 372 296 371 295 372

C295 373 295 374 295 374

C296 376 297 376 297 373

Z

M576 382

C568 382 555 381 547 381

C538 381 533 381 533 380

C532 378 551 379 582 380

C598 381 608 381 618 381

C626 380 636 380 640 380

C649 379 649 379 649 371

C649 367 650 366 651 367

C652 367 653 366 654 365

C656 363 659 363 661 366

C664 370 660 374 656 372

C653 371 652 374 652 377

C652 379 654 380 664 381

C665 381 667 381 667 382

C666 383 649 383 648 382

C647 382 638 382 626 383

C603 384 597 384 576 382

Z

M660 368

C660 366 658 365 656 367

C654 368 654 370 657 370

C659 370 660 369 660 368

Z

M153 379

C153 378 152 376 151 375

C151 372 154 367 157 368

C161 368 160 375 155 375

C153 375 153 376 155 377

C156 378 158 378 162 378

C166 377 167 378 166 379

C165 379 162 380 160 380

C156 381 155 380 153 379

Z

M157 371

C158 370 157 369 156 370

C156 370 155 371 155 371

C154 372 155 373 156 372

C156 372 157 371 157 371

Z

M113 373

C113 369 113 366 113 366

C114 366 116 375 115 377

C114 382 113 379 113 373

Z

M254 378

C254 377 254 377 255 377

C258 377 260 374 259 373

C259 372 257 372 256 372

C253 372 253 369 255 366

C258 364 262 364 262 366

C262 367 261 367 260 367

C259 367 258 367 257 368

C255 369 255 369 258 370

C260 370 261 371 261 373

C262 376 256 380 254 378

Z

M310 377

C307 373 310 365 315 366

C318 366 318 368 315 370

C311 372 311 376 314 376

C315 376 317 377 317 378

C317 379 312 379 310 377

Z

M224 375

C223 372 223 366 224 366

C225 366 227 372 227 376

C227 378 225 378 224 375

Z

M124 374

C123 372 123 371 124 371

C125 371 125 372 125 374

C126 377 125 377 124 374

Z

M145 374

C145 370 144 369 142 372

C141 373 139 374 138 374

C137 374 135 375 134 375

C131 376 128 371 131 369

C131 369 132 369 132 370

C132 373 134 373 135 371

C135 370 136 370 137 370

C138 370 140 370 141 368

C143 367 144 367 145 368

C147 369 147 377 146 377

C145 377 145 375 145 374

Z

M302 375

C301 374 301 372 301 371

C301 367 304 361 305 361

C307 361 307 361 305 363

C302 368 302 375 305 375

C306 375 307 375 307 376

C307 377 303 377 302 375

Z

M266 374

C266 372 266 371 266 371

C267 369 268 370 268 373

C268 376 267 376 266 374

Z

M344 374

C342 372 342 370 344 368

C345 367 346 367 349 368

C351 368 353 369 353 370

C353 374 347 377 344 374

Z

M350 372

C351 370 348 369 347 371

C345 372 345 373 347 373

C348 373 350 372 350 372

Z

M366 373

C365 371 365 371 366 369

C368 366 371 365 372 366

C373 367 372 368 371 370

C367 374 371 375 375 371

C376 369 378 369 378 370

C378 370 380 370 382 370

L385 369

L383 371

C381 373 379 373 379 373

C378 373 376 373 375 374

C372 376 368 376 366 373

Z

M439 374

C439 374 439 373 440 373

C442 372 442 372 440 371

C437 369 439 364 443 365

C445 365 446 368 444 367

C441 367 441 369 443 369

C447 370 448 370 447 372

C445 374 440 376 439 374

Z

M602 374

C598 372 601 366 606 366

C611 366 610 369 605 371

L602 372

L606 372

C609 372 610 373 610 374

C610 375 604 376 602 374

Z

M618 375

C617 374 618 373 620 373

C621 373 621 372 621 372

C621 371 619 371 618 371

C617 371 616 370 616 369

C616 367 618 365 622 366

C625 366 625 366 623 367

L620 368

L622 369

C625 370 625 373 622 374

C620 375 618 375 618 375

Z

M285 373

C284 372 283 372 280 373

C275 374 274 374 273 372

C272 370 274 368 275 370

C276 372 276 372 277 370

C279 369 280 369 280 369

C280 370 281 370 283 369

C286 368 286 368 287 372

C288 375 286 375 285 373

Z

M387 373

C386 371 387 369 389 368

C391 367 396 368 396 370

C396 371 396 372 398 372

C401 373 399 374 393 374

C389 374 387 374 387 373

Z

M392 372

C392 371 392 371 391 371

C389 371 389 371 389 372

C389 372 390 373 391 373

C391 373 392 372 392 372

Z

M538 368

C537 361 539 351 541 352

C542 352 542 372 541 374

C540 376 539 374 538 368

Z

M563 372

C563 370 562 369 560 368

C557 367 557 367 559 366

C561 365 562 365 562 362

C562 360 562 357 563 356

C564 354 564 355 564 360

L564 366

L568 366

C572 367 573 369 568 369

C565 369 565 369 565 372

C565 373 564 375 564 375

C563 375 563 373 563 372

Z

M627 373

C626 371 628 358 630 357

C631 356 630 362 629 368

L628 370

L634 367

C640 364 643 364 643 365

C643 366 641 367 640 368

C637 370 638 372 641 372

C642 372 644 372 644 373

C644 374 638 374 636 371

C635 370 634 370 633 370

C632 371 630 372 630 373

C629 375 628 375 627 373

Z

M54 372

C54 371 58 364 59 364

C60 364 60 367 58 370

C56 373 54 375 54 372

Z

M409 371

C409 370 408 370 407 371

C405 372 404 372 403 371

C400 368 398 357 401 356

C402 355 402 356 402 358

C401 361 403 369 405 369

C405 369 406 368 408 367

C409 366 410 366 411 368

C412 369 412 374 411 374

C410 374 409 373 409 371

Z

M418 371

C418 368 420 366 422 367

C423 367 424 368 424 370

C424 373 424 373 421 373

C418 374 418 373 418 371

Z

M422 370

C422 370 422 369 421 369

C420 369 420 370 420 370

C419 371 420 372 421 372

C422 372 423 371 422 370

Z

M433 373

C433 372 431 372 429 372

C427 372 426 371 427 369

C427 368 427 367 428 367

C429 367 429 368 429 368

C429 370 431 370 432 368

C434 367 434 367 435 371

C436 373 434 375 433 373

Z

M503 371

C501 366 507 360 511 363

C512 364 512 365 510 366

C509 367 507 368 506 368

C504 368 504 369 507 371

C508 372 509 372 512 371

C513 370 515 370 515 370

C517 371 512 374 508 374

C505 374 504 373 503 371

Z

M595 372

C594 370 594 370 592 371

C587 374 576 372 579 368

C580 366 582 366 581 368

C580 370 582 370 585 368

C586 367 587 367 587 368

C588 370 589 370 592 368

C594 367 596 367 596 367

C596 367 596 369 596 371

C596 374 596 374 595 372

Z

M87 370

C83 366 83 366 85 365

C87 365 89 367 92 371

C93 373 91 373 87 370

Z

M574 369

C574 368 574 367 575 367

C575 367 576 369 576 370

C576 371 575 373 575 373

C574 373 574 371 574 369

Z

M461 369

L459 366

L461 364

C463 363 464 362 464 361

C464 358 466 353 467 353

C468 353 469 355 468 355

C467 356 466 358 466 360

L465 364

L474 363

C483 363 484 363 484 365

C484 366 484 367 486 367

C489 368 488 370 484 369

C482 369 480 369 480 370

C478 371 475 370 474 367

C474 366 473 366 470 366

C466 366 466 366 466 369

C466 372 464 372 461 369

Z

M480 367

C480 366 479 366 478 366

C477 366 477 366 477 367

C477 367 477 368 478 368

C479 368 480 367 480 367

Z

M495 370

C494 369 493 369 492 368

C489 368 489 368 489 362

C489 358 489 355 490 354

C492 352 493 353 492 355

C490 358 490 365 492 366

C492 366 493 366 494 366

C495 364 497 364 497 366

C497 367 497 368 498 368

C499 368 500 369 500 370

C500 371 496 371 495 370

Z

M122 365

C122 364 122 364 122 364

C123 364 124 364 124 365

C124 365 124 366 123 366

C122 366 122 365 122 365

Z

M324 364

C324 363 324 361 325 361

C327 359 329 361 328 363

C328 364 327 364 327 364

C326 364 326 364 326 364

C326 365 325 366 325 366

C324 366 324 365 324 364

Z

M412 364

C411 362 412 361 413 362

C414 362 414 363 413 364

C413 366 413 366 412 364

Z

M105 363

C105 361 115 359 119 359

C121 359 123 359 123 360

C123 360 121 361 120 361

C118 361 115 361 112 362

C106 364 105 364 105 363

Z

M250 358

C250 354 248 353 247 357

C246 359 246 359 245 357

C244 356 246 350 247 351

C251 351 254 357 251 359

C250 361 250 360 250 358

Z

M555 288

C555 287 556 284 557 281

C557 278 558 277 558 277

C559 278 556 290 555 290

C555 290 555 289 555 288

Z

M469 280

C470 280 473 280 474 280

C475 280 474 280 472 280

C469 280 468 280 469 280

Z

M448 279

C449 279 450 279 450 279

C451 279 450 279 449 279

C448 279 448 279 448 279

Z

M559 263

C559 258 559 253 559 252

C560 250 560 269 559 271

C559 272 559 268 559 263

Z

M429 264

C429 261 428 255 427 251

C426 242 426 231 427 232

C428 232 428 236 428 241

C428 245 429 252 430 256

C430 260 431 265 430 267

C430 269 430 269 429 264

Z

M528 266

C527 264 526 249 527 250

C528 250 529 266 529 266

C529 266 528 266 528 266

Z

M500 259

C500 257 500 256 500 257

C500 259 500 260 500 261

C500 262 500 261 500 259

Z

M509 261

C509 261 509 259 510 259

C510 257 510 258 510 260

C510 261 510 263 510 263

C509 263 509 262 509 261

Z

M481 260

C481 259 481 258 482 257

C484 256 484 256 483 258

C481 261 481 261 481 260

Z

M459 250

C459 246 459 245 459 247

C459 249 459 252 459 254

C459 256 459 254 459 250

Z

M464 253

C464 251 464 250 464 251

C464 252 464 253 464 254

C464 255 464 254 464 253

Z

M511 255

C511 254 511 252 512 251

C512 250 512 250 512 251

C512 251 512 253 512 254

C511 255 511 255 511 255

Z

M486 251

C487 250 488 249 488 249

C489 249 486 254 485 254

C485 254 485 252 486 251

Z

M496 249

C495 246 495 244 495 243

C495 243 495 244 497 247

C498 250 498 252 498 252

C498 252 497 251 496 249

Z

M560 249

C560 247 564 234 564 235

C565 235 562 250 561 250

C561 250 560 249 560 249

Z

M465 248

C465 248 466 246 468 243

C471 238 471 236 469 235

C468 234 468 234 468 234

C472 233 472 239 469 243

C468 244 467 246 466 247

C465 248 465 249 465 248

Z

M489 247

C489 246 489 245 490 245

C490 245 491 245 491 245

C491 246 490 247 490 247

C489 247 489 247 489 247

Z

M513 244

C513 242 513 241 513 242

C513 244 513 245 513 246

C513 247 513 246 513 244

Z

M521 246

C521 246 521 244 522 243

C523 241 523 241 523 242

C523 243 521 248 521 246

Z

M526 241

C526 238 526 237 526 238

C526 239 526 242 526 243

C526 244 526 243 526 241

Z

M457 239

C457 237 457 237 458 238

C459 238 459 239 458 239

C457 240 457 240 457 239

Z

M565 233

C565 232 565 230 566 229

C566 228 566 228 566 229

C566 229 566 231 566 232

C565 233 565 233 565 233

Z

M567 225

C567 224 567 222 568 222

C568 220 568 221 568 223

C567 227 566 227 567 225

Z

M430 222

C431 222 432 222 432 222

C433 222 432 222 431 222

C430 222 430 222 430 222

Z

M437 221

C439 221 442 221 444 221

C446 221 445 221 441 221

C436 221 435 221 437 221

Z

M465 220

C467 220 468 220 469 220

C470 220 469 220 467 220

C465 220 464 220 465 220

Z

M476 219

C477 219 478 219 479 219

C479 219 479 219 477 219

C475 219 475 219 476 219

Z

M569 218

C569 217 570 217 570 217

C571 217 570 218 570 219

C569 220 569 220 569 218

Z

M506 218

C512 218 523 218 529 218

C535 218 530 218 518 218

C505 218 500 218 506 218

Z

M543 217

C544 217 547 217 548 217

C549 217 548 217 545 217

C542 217 541 217 543 217

Z

M483 109

C464 109 443 107 425 105

C417 104 405 103 398 103

C385 102 316 104 299 105

C289 106 271 105 271 103

C271 103 278 103 287 103

C296 103 324 102 347 102

C396 100 394 100 467 106

C473 107 483 108 488 108

C501 108 515 109 514 110

C513 111 506 111 483 109

Z

M694 107

C694 105 694 104 694 105

C694 107 694 108 694 109

C694 110 694 109 694 107

Z

M511 93

C511 92 511 81 511 68

C511 54 511 44 511 44

C510 44 508 47 506 52

C498 65 489 71 484 67

L481 65

L479 71

C477 74 476 79 475 82

C474 84 473 86 472 86

C471 87 472 82 475 75

C477 69 478 67 478 57

C479 49 479 47 480 47

C481 47 482 48 482 53

C482 62 483 66 488 66

C493 66 498 60 504 50

C509 41 511 38 513 39

C514 40 514 93 512 94

C512 94 511 94 511 93

Z

M275 85

C275 79 272 50 271 50

C271 49 267 50 262 50

C253 52 252 51 253 50

C254 49 262 48 281 47

C287 46 294 45 295 45

C297 45 298 45 298 45

C298 47 291 49 283 49

C273 48 273 49 275 63

C277 79 277 90 276 90

C275 91 275 89 275 85

Z

M319 87

C318 86 317 81 317 77

C317 73 317 68 317 67

C316 65 316 65 313 69

C312 71 310 75 309 77

C306 82 304 83 302 79

C301 77 300 49 301 45

C302 39 303 43 303 56

C302 69 303 78 305 78

C306 78 307 75 309 72

C311 69 313 65 314 64

C317 62 317 62 318 64

C319 65 320 69 320 75

C320 80 320 84 321 86

C321 87 321 88 321 88

C320 88 319 88 319 87

Z

M336 87

C331 85 330 77 333 72

C336 68 341 65 344 66

C348 67 344 74 337 76

C334 76 334 77 334 79

C334 85 337 86 348 82

C354 79 357 79 356 80

C355 82 344 86 340 87

C338 87 336 87 336 87

Z

M341 71

C344 69 344 67 341 68

C339 69 336 72 336 73

C336 74 338 74 341 71

Z

M459 86

C458 85 457 83 456 81

L455 77

L448 77

C437 77 438 75 449 74

C454 73 455 73 454 71

C454 70 454 66 454 61

C454 57 453 54 453 54

C452 54 450 57 448 62

C443 70 434 84 432 84

C431 85 432 82 437 75

C443 68 449 56 452 49

C453 46 454 44 454 45

C455 46 455 52 456 59

C456 70 457 73 458 74

C459 76 459 76 458 77

C457 78 459 83 461 86

C463 87 463 88 461 88

C460 88 459 87 459 86

Z

M407 84

C402 82 403 76 410 66

C416 57 419 52 419 46

C419 42 418 41 416 39

C415 38 412 36 410 36

C406 36 400 39 398 42

C397 43 396 44 396 43

C395 42 399 38 403 36

C404 35 407 35 410 35

C414 35 415 35 418 37

C421 40 421 41 421 46

C421 53 419 57 412 67

C409 71 407 75 406 77

C405 80 405 80 408 82

C410 83 411 84 418 83

C422 83 426 83 426 83

C426 85 411 86 407 84

Z

M400 82

C399 80 402 42 403 41

C405 40 407 41 406 43

C404 44 403 64 403 75

C403 82 402 84 400 82

Z

M232 451

C232 450 233 449 234 449

C237 448 239 445 238 442

C237 441 237 440 234 441

C232 441 230 440 233 439

C234 438 234 434 232 433

C230 432 228 433 229 436

C229 437 229 437 228 437

C226 437 227 432 229 431

C232 429 236 432 236 435

C236 437 236 439 237 439

C239 439 241 442 241 444

C241 447 236 452 234 452

C232 452 232 451 232 451

Z

M227 411

C227 410 227 408 229 406

C231 402 231 401 228 401

C226 401 224 401 223 403

C222 405 221 405 221 403

C221 400 231 397 233 400

C233 400 233 403 231 406

C228 412 228 412 231 411

C234 411 235 411 234 413

C233 413 231 413 229 413

C227 413 227 413 227 411

Z

"/>

<path fill="#432326" stroke="none" d="
M135 457

C135 456 135 454 136 454

C136 452 136 453 136 456

C135 460 134 461 135 457

Z

M159 457

C159 456 159 456 159 456

C159 456 160 456 160 457

C160 458 160 459 159 459

C159 459 159 458 159 457

Z

M168 456

C168 454 168 454 168 455

C168 456 168 457 168 458

C168 458 168 458 168 456

Z

M127 455

C127 454 127 452 127 450

C127 448 127 449 128 452

C128 457 128 459 127 455

Z

M183 455

C183 454 183 453 183 452

C183 450 183 450 184 452

C185 455 184 456 183 455

Z

M247 454

C247 453 248 453 248 453

C249 453 248 454 248 455

C247 456 247 456 247 454

Z

M359 455

C359 454 359 452 360 451

C360 450 360 450 360 451

C360 451 360 453 360 454

C359 455 359 455 359 455

Z

M169 450

C169 448 169 448 169 449

C169 450 169 451 169 452

C169 452 169 452 169 450

Z

M137 450

C137 449 137 448 137 448

C138 448 138 448 138 449

C137 452 137 452 137 450

Z

M221 450

C221 450 221 449 221 449

C221 449 222 449 222 450

C223 452 222 452 221 450

Z

M153 448

C153 447 153 447 153 447

C153 448 153 449 153 449

C153 450 153 449 153 448

Z

M157 448

C157 446 157 446 157 446

C157 447 157 448 157 449

C157 449 157 449 157 448

Z

M182 446

C182 444 182 443 182 444

C182 446 182 447 182 448

C182 449 182 448 182 446

Z

M249 445

C249 441 249 440 249 442

C249 443 249 446 249 447

C249 449 249 448 249 445

Z

M267 448

C267 447 267 446 267 446

C268 446 268 446 268 447

C267 449 267 449 267 448

Z

M361 447

C361 446 361 446 361 446

C361 447 361 448 361 448

C361 449 361 448 361 447

Z

M139 444

C139 443 138 441 137 440

C135 438 135 438 137 440

C139 441 140 443 139 444

C139 446 139 446 139 444

Z

M219 443

C219 442 219 442 219 442

C219 443 219 444 219 444

C219 445 219 444 219 443

Z

M269 443

C269 441 269 440 269 440

C270 440 270 441 270 442

C269 445 269 445 269 443

Z

M169 440

C169 440 169 440 170 440

C170 440 171 441 171 441

C171 441 170 442 170 442

C169 442 169 441 169 440

Z

M363 441

C363 440 363 439 364 439

C364 438 364 437 364 438

C364 439 364 440 364 441

C363 441 363 442 363 441

Z

M413 439

C413 438 413 436 414 436

C415 434 415 435 414 438

C413 439 413 439 413 439

Z

M337 433

C338 431 338 430 338 432

C339 433 338 434 338 435

C337 435 337 435 337 433

Z

M547 434

C547 432 547 432 547 432

C547 433 547 434 547 435

C547 435 547 435 547 434

Z

M219 432

C219 430 219 430 219 430

C219 431 219 432 219 433

C219 433 219 433 219 432

Z

M606 429

C606 427 606 426 606 427

C606 429 606 430 606 431

C606 432 606 431 606 429

Z

M621 431

C621 429 621 429 621 429

C621 430 621 431 621 432

C621 432 621 432 621 431

Z

M651 431

C651 430 651 430 651 430

C651 431 651 432 651 432

C651 433 651 432 651 431

Z

M125 430

C125 429 125 429 125 429

C125 430 125 431 125 431

C125 432 125 431 125 430

Z

M346 430

C346 429 346 429 346 429

C346 430 346 431 346 431

C346 432 346 431 346 430

Z

M497 431

C497 430 498 430 498 430

C498 430 499 430 499 431

C499 431 498 432 497 432

C497 432 497 431 497 431

Z

M144 426

C144 424 144 424 144 425

C144 426 144 427 144 428

C144 428 144 428 144 426

Z

M124 426

C124 425 124 425 124 425

C124 426 124 427 124 427

C124 428 124 427 124 426

Z

M137 426

C137 425 137 425 137 425

C137 426 137 427 137 427

C137 428 137 427 137 426

Z

M151 426

C151 425 151 424 151 423

C151 423 151 423 152 425

C152 428 152 428 151 426

Z

M135 419

C134 415 134 411 136 411

C136 411 137 413 137 417

C137 423 136 424 135 419

Z

M642 418

C642 417 642 417 642 417

C642 418 642 419 642 419

C642 420 642 419 642 418

Z

M122 417

C122 415 122 415 122 415

C122 416 122 417 122 418

C122 418 122 418 122 417

Z

M76 411

C77 411 78 411 79 411

C79 411 79 411 77 411

C75 411 75 411 76 411

Z

M623 409

C624 408 624 408 624 408

C625 409 624 410 624 411

C623 411 623 411 623 409

Z

M625 405

C625 403 625 402 625 402

C626 402 626 403 626 404

C625 407 625 407 625 405

Z

M231 404

C231 403 231 402 232 402

C232 401 232 400 232 401

C232 402 232 403 232 404

C231 404 231 405 231 404

Z

M55 401

C55 400 55 398 55 397

C55 395 55 395 56 398

C56 402 56 404 55 401

Z

M508 400

C508 399 508 399 508 399

C508 400 508 401 508 401

C508 402 508 401 508 400

Z

M451 399

C451 398 451 396 452 395

C454 394 454 394 453 396

C452 396 451 398 451 399

C451 401 451 401 451 399

Z

M121 398

C121 397 121 396 121 395

C121 394 121 394 122 396

C122 399 122 401 121 398

Z

M227 399

C228 399 229 399 230 399

C230 399 230 399 229 399

C227 399 227 399 227 399

Z

M645 398

C645 396 645 396 645 396

C645 397 645 398 645 399

C645 399 645 399 645 398

Z

M93 392

C93 386 93 385 94 387

C94 389 94 392 94 395

C93 399 93 398 93 392

Z

M131 395

C131 393 131 392 132 392

C132 392 133 393 133 395

C133 396 132 397 132 397

C131 397 131 396 131 395

Z

M586 395

C586 393 586 392 586 393

C586 394 586 395 586 396

C586 397 586 396 586 395

Z

M214 396

C214 396 214 395 215 394

C217 393 217 393 216 395

C214 396 214 397 214 396

Z

M54 389

C54 386 54 385 54 387

C54 388 54 391 54 392

C54 393 54 392 54 389

Z

M387 391

C387 390 387 388 387 388

C388 388 388 389 388 391

C387 394 387 394 387 391

Z

M575 392

C575 391 575 390 576 390

C577 389 577 391 576 393

C575 394 575 394 575 392

Z

M479 389

C479 386 479 385 479 385

C480 385 480 386 480 389

C479 391 479 393 479 393

C479 393 479 391 479 389

Z

M469 386

C469 385 469 385 469 385

C469 386 469 387 469 387

C469 388 469 387 469 386

Z

M357 385

C357 384 357 384 357 384

C357 385 357 386 357 386

C357 387 357 386 357 385

Z

M55 382

C55 381 55 381 55 381

C55 382 55 383 55 383

C55 384 55 383 55 382

Z

M91 382

C91 380 91 380 92 381

C92 382 93 383 92 383

C92 383 91 383 91 382

Z

M292 381

C292 379 292 379 292 379

C292 380 292 381 292 382

C292 382 292 382 292 381

Z

M87 377

L85 374

L88 376

C90 379 91 380 90 380

C90 380 89 378 87 377

Z

M239 378

C239 377 240 377 240 377

C241 377 240 378 240 379

C239 380 239 380 239 378

Z

M113 372

C113 367 113 366 114 368

C115 372 115 377 114 378

C113 378 113 375 113 372

Z

M211 372

C211 368 211 365 211 365

C212 365 212 367 212 370

C211 378 211 379 211 372

Z

M225 373

C225 370 225 369 225 370

C225 371 225 374 225 375

C225 376 225 375 225 373

Z

M145 373

C145 371 145 370 145 371

C145 372 145 373 145 374

C145 375 145 374 145 373

Z

M298 373

C298 371 298 370 298 371

C298 372 298 373 298 374

C298 375 298 374 298 373

Z

M124 373

C124 371 124 371 124 371

C124 372 124 373 124 374

C124 374 124 374 124 373

Z

M267 372

C267 370 267 370 267 371

C267 372 267 373 267 374

C267 374 267 374 267 372

Z

M302 370

C302 368 302 367 302 368

C302 370 302 371 302 372

C302 373 302 372 302 370

Z

M361 371

C362 369 362 368 362 370

C363 371 362 372 362 373

C361 373 361 373 361 371

Z

M563 372

C563 370 563 370 563 370

C563 371 563 372 563 373

C563 373 563 373 563 372

Z

M596 370

C596 368 596 368 596 369

C596 370 596 371 596 372

C596 372 596 372 596 370

Z

M66 371

C67 371 68 371 68 371

C69 371 68 371 67 371

C66 371 66 371 66 371

Z

M410 370

C410 369 410 369 410 369

C410 370 410 371 410 371

C410 372 410 371 410 370

Z

M242 369

C242 367 242 367 242 367

C242 368 242 369 242 370

C242 370 242 370 242 369

Z

M628 367

C628 366 628 366 628 366

C628 367 628 368 628 368

C628 369 628 368 628 367

Z

M413 363

C413 362 413 362 413 362

C413 363 413 364 413 364

C413 365 413 364 413 363

Z

M489 362

C489 360 489 359 489 360

C489 361 489 362 489 363

C489 364 489 363 489 362

Z

M629 361

C629 360 629 358 630 358

C630 358 630 358 630 360

C629 364 629 364 629 361

Z

M465 359

C465 357 465 356 465 357

C465 358 465 359 465 360

C465 361 465 360 465 359

Z

M555 288

C555 287 556 284 557 281

C557 278 558 277 558 277

C559 278 556 290 555 290

C555 290 555 289 555 288

Z

M469 280

C470 280 473 280 474 280

C475 280 474 280 472 280

C469 280 468 280 469 280

Z

M448 279

C449 279 450 279 450 279

C451 279 450 279 449 279

C448 279 448 279 448 279

Z

M559 263

C559 258 559 253 559 252

C560 250 560 269 559 271

C559 272 559 268 559 263

Z

M429 264

C429 261 428 255 427 251

C426 242 426 231 427 232

C428 232 428 236 428 241

C428 245 429 252 430 256

C430 260 431 265 430 267

C430 269 430 269 429 264

Z

M528 266

C527 264 526 249 527 250

C528 250 529 266 529 266

C529 266 528 266 528 266

Z

M500 259

C500 257 500 256 500 257

C500 259 500 260 500 261

C500 262 500 261 500 259

Z

M509 261

C509 261 509 259 510 259

C510 257 510 258 510 260

C510 261 510 263 510 263

C509 263 509 262 509 261

Z

M481 260

C481 259 481 258 482 257

C484 256 484 256 483 258

C481 261 481 261 481 260

Z

M459 250

C459 246 459 245 459 247

C459 249 459 252 459 254

C459 256 459 254 459 250

Z

M464 253

C464 251 464 250 464 251

C464 252 464 253 464 254

C464 255 464 254 464 253

Z

M511 255

C511 254 511 252 512 251

C512 250 512 250 512 251

C512 251 512 253 512 254

C511 255 511 255 511 255

Z

M486 251

C487 250 488 249 488 249

C489 249 486 254 485 254

C485 254 485 252 486 251

Z

M496 249

C495 246 495 244 495 243

C495 243 495 244 497 247

C498 250 498 252 498 252

C498 252 497 251 496 249

Z

M560 249

C560 247 564 234 564 235

C565 235 562 250 561 250

C561 250 560 249 560 249

Z

M465 248

C465 248 466 246 468 243

C471 238 471 236 469 235

C468 234 468 234 468 234

C472 233 472 239 469 243

C468 244 467 246 466 247

C465 248 465 249 465 248

Z

M489 247

C489 246 489 245 490 245

C490 245 491 245 491 245

C491 246 490 247 490 247

C489 247 489 247 489 247

Z

M513 244

C513 242 513 241 513 242

C513 244 513 245 513 246

C513 247 513 246 513 244

Z

M521 246

C521 246 521 244 522 243

C523 241 523 241 523 242

C523 243 521 248 521 246

Z

M526 241

C526 238 526 237 526 238

C526 239 526 242 526 243

C526 244 526 243 526 241

Z

M457 239

C457 237 457 237 458 238

C459 238 459 239 458 239

C457 240 457 240 457 239

Z

M565 233

C565 232 565 230 566 229

C566 228 566 228 566 229

C566 229 566 231 566 232

C565 233 565 233 565 233

Z

M567 225

C567 224 567 222 568 222

C568 220 568 221 568 223

C567 227 566 227 567 225

Z

M430 222

C431 222 432 222 432 222

C433 222 432 222 431 222

C430 222 430 222 430 222

Z

M437 221

C439 221 442 221 444 221

C446 221 445 221 441 221

C436 221 435 221 437 221

Z

M465 220

C467 220 468 220 469 220

C470 220 469 220 467 220

C465 220 464 220 465 220

Z

M476 219

C477 219 478 219 479 219

C479 219 479 219 477 219

C475 219 475 219 476 219

Z

M569 218

C569 217 570 217 570 217

C571 217 570 218 570 219

C569 220 569 220 569 218

Z

M506 218

C512 218 523 218 529 218

C535 218 530 218 518 218

C505 218 500 218 506 218

Z

M543 217

C544 217 547 217 548 217

C549 217 548 217 545 217

C542 217 541 217 543 217

Z

M485 109

C465 109 431 106 420 104

C408 103 339 103 314 104

C294 106 271 105 271 103

C271 103 278 103 288 103

C297 103 323 102 345 102

C384 100 405 101 419 102

C430 104 480 107 498 108

C506 108 514 109 514 110

C514 111 510 111 485 109

Z

M694 107

C694 105 694 104 694 105

C694 107 694 108 694 109

C694 110 694 109 694 107

Z

M511 94

C511 93 511 82 511 68

C512 55 511 44 511 44

C510 44 508 47 505 52

C498 65 489 71 484 67

L481 65

L479 71

C477 74 476 79 475 82

C474 84 473 86 472 86

C471 87 472 83 475 75

C477 69 478 67 478 57

C479 49 479 47 480 47

C481 47 482 48 482 53

C482 62 483 65 488 65

C491 66 492 65 496 61

C499 58 503 52 505 48

C508 43 510 39 511 39

C511 40 512 39 512 39

C513 39 514 93 513 94

C512 94 511 94 511 94

Z

M274 84

C274 77 272 50 271 50

C271 49 267 50 262 50

C257 51 253 51 253 50

C253 50 253 49 253 49

C254 49 257 49 260 48

C263 48 272 47 280 47

C287 46 294 45 296 45

C298 44 298 44 296 46

C295 48 293 48 285 48

C277 49 274 49 274 50

C274 51 274 57 275 63

C277 81 277 90 276 90

C275 91 274 89 274 84

Z

M318 86

C318 85 317 81 317 76

C317 66 316 64 313 69

C312 71 310 75 309 77

C306 83 303 83 302 76

C301 72 300 49 301 45

C303 40 303 43 303 59

C303 78 304 82 307 76

C311 69 315 63 316 63

C318 62 319 66 320 77

C320 87 320 90 318 86

Z

M457 84

C456 82 456 80 456 79

C455 75 452 75 443 77

C440 78 440 78 441 76

C442 75 444 75 448 75

C451 75 454 74 454 74

C454 72 453 53 453 54

C452 54 451 56 449 59

C446 67 433 85 432 84

C432 84 435 79 439 73

C443 67 448 58 450 54

C451 49 453 46 454 46

C455 46 455 50 456 60

C456 72 456 74 458 75

C459 76 459 76 459 76

C457 77 457 80 460 83

C462 87 462 88 460 88

C460 88 459 86 457 84

Z

M333 85

C331 81 331 75 334 71

C338 66 346 64 346 68

C346 71 341 74 337 76

C334 77 333 77 334 80

C334 84 334 84 338 84

C340 84 344 84 348 82

C355 79 356 79 356 80

C356 81 353 82 349 84

C341 87 334 87 333 85

Z

M341 71

C344 69 344 68 342 68

C340 68 336 71 336 73

C336 74 338 74 341 71

Z

M407 84

C402 82 403 76 411 65

C417 56 420 49 419 44

C417 35 406 34 399 41

C398 43 396 44 396 43

C395 42 400 37 403 36

C409 33 414 34 418 37

C420 40 421 41 421 46

C421 53 419 56 412 67

C405 77 404 79 408 82

C410 84 411 84 418 83

C424 83 426 83 425 84

C423 85 410 86 407 84

Z

M400 82

C399 80 402 42 403 41

C405 39 406 41 405 46

C404 48 403 57 403 66

C402 81 402 84 400 82

Z

"/>

</svg>

